<svg 
 xmlns="http://www.w3.org/2000/svg"
 xmlns:xlink="http://www.w3.org/1999/xlink"
 width="45px" height="59px">
<defs>
<linearGradient id="PSgrad_0" x1="0%" x2="27.564%" y1="96.126%" y2="0%">
  <stop offset="0%" stop-color="rgb(34,159,255)" stop-opacity="1" />
  <stop offset="100%" stop-color="rgb(69,226,0)" stop-opacity="1" />
</linearGradient>

</defs>
<path fill-rule="evenodd"  fill="url(#PSgrad_0)"
 d="M21.809,0.980 C22.330,0.970 22.662,1.108 22.848,1.424 C23.061,1.784 23.105,6.495 22.888,6.944 C22.780,7.167 22.481,7.410 22.209,7.467 C21.666,7.580 21.229,7.166 21.130,6.822 C21.144,5.050 21.157,3.276 21.170,1.504 C21.296,1.234 21.563,1.134 21.809,0.980 ZM0.841,9.844 C1.602,9.889 1.949,10.480 2.358,10.891 C3.437,11.912 4.515,12.933 5.593,13.953 C5.905,14.376 5.817,15.091 5.434,15.365 C4.748,15.853 4.107,15.153 3.756,14.800 C3.102,14.140 0.255,11.749 0.042,11.093 C-0.202,10.344 0.394,10.060 0.841,9.844 ZM43.817,10.650 C44.584,10.633 45.286,11.184 44.895,11.980 C43.511,13.229 42.126,14.478 40.741,15.727 C40.373,16.023 39.787,16.374 39.263,15.968 C38.672,15.509 39.047,14.653 39.463,14.317 C40.929,13.131 42.215,11.672 43.817,10.650 ZM31.874,51.183 C33.008,51.141 34.525,51.228 33.991,52.512 C33.683,53.253 32.119,53.073 31.076,53.036 C31.087,54.319 31.344,58.351 30.676,58.798 C30.210,59.109 27.984,58.918 27.201,58.918 C24.153,58.918 21.103,58.918 18.055,58.918 C17.234,58.918 14.785,59.124 14.301,58.798 C13.631,58.348 13.890,54.321 13.901,53.036 C12.992,53.071 11.429,53.227 11.065,52.673 C10.290,51.496 11.747,51.144 12.863,51.183 C13.062,46.956 11.604,44.153 9.787,41.836 C9.082,41.070 8.376,40.304 7.670,39.539 C6.680,38.219 5.802,36.718 5.154,35.066 C4.765,34.074 4.512,32.960 4.275,31.843 C3.654,28.913 4.216,25.412 5.074,23.221 C7.167,17.882 10.875,14.354 16.178,12.262 C17.876,11.592 19.706,11.536 21.809,11.174 C22.488,11.200 23.167,11.228 23.846,11.255 C26.105,11.645 27.849,11.856 29.598,12.584 C35.574,15.074 39.402,19.519 40.701,26.766 C41.078,28.871 40.827,31.530 40.302,33.294 C39.587,35.693 38.556,37.724 37.226,39.498 C36.468,40.331 35.709,41.163 34.950,41.996 C33.057,44.395 31.857,46.769 31.874,51.183 ZM14.700,51.183 C19.812,51.183 24.925,51.183 30.037,51.183 C29.947,46.461 31.349,43.605 33.352,41.030 C34.138,40.170 34.923,39.310 35.709,38.451 C36.905,36.857 37.861,35.045 38.504,32.891 C41.173,23.964 34.770,16.837 29.118,14.398 C27.696,13.783 24.284,12.649 22.049,13.027 C20.355,13.313 18.873,13.343 17.456,13.793 C12.351,15.415 8.773,18.945 6.832,23.785 C6.083,25.651 5.529,28.613 6.033,31.199 C6.292,32.527 6.593,33.782 7.071,34.906 C9.474,40.550 15.268,42.466 14.700,51.183 ZM19.653,15.485 C20.415,15.477 21.016,15.528 21.490,15.806 C21.663,15.942 21.836,16.076 22.009,16.210 C22.448,16.237 22.888,16.264 23.327,16.291 C24.479,16.612 25.445,17.450 26.083,18.306 C26.239,18.515 27.401,20.683 27.401,20.683 C27.920,20.615 28.440,20.549 28.959,20.481 C30.037,20.312 31.294,20.551 32.034,20.844 C34.372,21.770 35.245,24.304 34.111,27.129 C33.752,27.827 33.392,28.526 33.033,29.225 C32.799,29.599 32.398,29.927 32.274,30.392 C32.287,30.407 32.300,30.420 32.314,30.434 C36.096,30.083 37.301,34.123 34.590,35.831 C34.640,39.877 31.192,40.368 27.401,39.942 C26.600,42.964 22.964,45.983 19.732,43.407 C19.038,42.853 18.436,41.975 17.975,41.190 C17.775,40.774 17.576,40.358 17.376,39.942 C17.285,39.897 15.002,40.247 14.380,40.144 C11.848,39.723 10.164,38.657 10.187,35.670 C8.423,34.646 8.804,31.705 10.347,30.755 C10.670,30.556 11.117,30.424 11.545,30.352 C11.920,30.290 12.313,30.464 12.543,30.312 C11.886,29.273 11.148,28.282 10.666,27.049 C9.324,23.612 10.853,21.201 13.861,20.562 C15.017,20.316 16.320,20.603 17.376,20.683 C17.469,20.495 17.562,20.306 17.655,20.119 C17.509,19.756 17.363,19.393 17.216,19.030 C16.704,16.801 18.346,16.093 19.653,15.485 ZM19.852,17.338 C18.635,17.945 18.872,19.705 20.172,19.514 C21.516,19.316 21.481,17.255 19.852,17.338 ZM23.008,18.184 C23.041,19.819 21.590,21.807 19.852,21.327 C20.731,21.689 21.610,22.052 22.488,22.415 C23.350,21.773 24.712,21.768 25.604,21.126 C25.108,20.060 24.256,18.455 23.008,18.184 ZM14.620,22.334 C13.666,22.694 12.843,22.600 12.343,23.382 C11.401,24.856 12.935,28.109 13.781,28.822 C14.007,28.642 15.743,26.995 15.818,26.847 C15.872,26.417 15.925,25.987 15.978,25.558 C16.218,24.524 16.457,23.490 16.697,22.455 C16.005,22.415 15.312,22.375 14.620,22.334 ZM29.118,22.334 C28.772,22.375 28.426,22.415 28.080,22.455 C28.080,22.468 28.080,22.482 28.080,22.495 C28.333,23.543 28.586,24.590 28.839,25.638 C28.879,26.027 28.919,26.417 28.959,26.807 C29.651,27.479 30.343,28.150 31.036,28.822 C31.062,28.808 31.089,28.795 31.115,28.781 C31.622,27.550 34.054,24.462 32.034,22.938 C31.311,22.393 30.209,22.429 29.118,22.334 ZM18.494,22.899 C18.321,23.623 18.148,24.349 17.975,25.074 C17.988,25.074 18.002,25.074 18.015,25.074 C18.055,25.034 18.095,24.993 18.135,24.953 C18.854,24.483 19.573,24.013 20.292,23.543 C19.851,23.232 19.080,23.009 18.494,22.899 ZM26.203,22.899 C25.630,23.114 25.058,23.328 24.485,23.543 C24.485,23.556 24.485,23.569 24.485,23.584 C25.271,24.080 26.056,24.577 26.842,25.074 C26.774,24.525 26.577,23.189 26.203,22.899 ZM22.368,24.510 C20.817,25.684 18.856,26.339 17.576,27.774 C17.500,28.873 17.149,32.102 17.695,33.011 C19.253,33.741 20.617,35.644 22.448,36.113 C23.101,35.739 23.753,35.361 24.406,34.986 C25.351,34.287 26.296,33.589 27.241,32.891 C27.252,31.806 27.624,28.649 27.241,27.774 C27.032,27.294 23.088,24.754 22.368,24.510 ZM22.129,27.371 C26.099,27.283 26.311,32.587 22.808,33.253 C20.780,33.639 19.005,31.511 19.573,29.507 C19.962,28.133 20.854,27.886 22.129,27.371 ZM22.249,29.225 C20.828,29.852 21.248,31.711 22.608,31.400 C23.831,31.120 23.713,29.193 22.249,29.225 ZM15.579,29.587 C15.366,29.829 15.153,30.069 14.940,30.312 C15.006,30.379 15.073,30.446 15.139,30.513 C15.299,30.688 15.459,30.863 15.619,31.038 C15.605,30.553 15.592,30.069 15.579,29.587 ZM29.158,29.587 C29.172,30.069 29.185,30.553 29.198,31.038 C29.291,30.957 29.385,30.876 29.478,30.796 C29.598,30.648 29.718,30.500 29.837,30.352 C29.715,30.048 29.406,29.770 29.158,29.587 ZM11.664,32.206 C11.363,32.369 11.070,32.475 10.906,32.771 C10.490,33.516 11.159,34.588 12.064,34.381 C13.311,34.097 13.187,32.140 11.664,32.206 ZM32.913,32.206 C31.578,32.869 31.937,34.692 33.312,34.381 C34.549,34.103 34.415,32.157 32.913,32.206 ZM32.753,36.194 C30.973,36.126 30.112,34.580 30.237,32.648 C29.811,33.038 29.385,33.428 28.959,33.816 C28.919,34.207 28.879,34.597 28.839,34.986 C28.629,36.052 28.435,37.178 28.080,38.128 C28.080,38.142 28.080,38.155 28.080,38.170 C30.174,38.412 32.710,38.380 32.753,36.194 ZM14.740,32.850 C15.248,34.648 13.469,36.162 12.024,36.235 C12.596,38.369 14.215,38.448 16.697,38.170 C16.697,38.128 16.697,38.089 16.697,38.048 C16.168,36.403 16.231,33.556 14.740,32.850 ZM17.975,35.550 C18.148,36.274 18.321,37.000 18.494,37.726 C18.534,37.726 18.574,37.726 18.614,37.726 C19.187,37.524 19.759,37.323 20.332,37.121 C19.546,36.597 18.760,36.074 17.975,35.550 ZM26.762,35.550 C26.003,36.074 25.244,36.597 24.485,37.121 C24.512,37.121 24.539,37.121 24.565,37.121 C25.017,37.403 25.700,37.625 26.283,37.726 C26.403,37.389 26.918,35.769 26.762,35.550 ZM22.368,38.209 C21.526,38.741 20.279,39.248 19.213,39.458 C19.348,40.116 19.862,40.678 20.212,41.151 C22.197,43.827 24.810,42.017 25.604,39.458 C24.406,39.260 23.431,38.571 22.368,38.209 ZM15.738,53.036 C15.738,54.393 15.738,55.749 15.738,57.106 C20.238,57.106 24.739,57.106 29.238,57.106 C29.238,55.749 29.238,54.393 29.238,53.036 C24.739,53.036 20.238,53.036 15.738,53.036 Z"/>
</svg>