<svg 
 xmlns="http://www.w3.org/2000/svg"
 xmlns:xlink="http://www.w3.org/1999/xlink"
 width="145px" height="146px">
<defs>
<linearGradient id="PSgrad_0" x1="0%" x2="27.564%" y1="96.126%" y2="0%">
  <stop offset="0%" stop-color="rgb(34,159,255)" stop-opacity="1" />
  <stop offset="100%" stop-color="rgb(69,226,0)" stop-opacity="1" />
</linearGradient>
<filter filterUnits="userSpaceOnUse" id="Filter_0" x="0px" y="0px" width="144px" height="145px"  >
    <feOffset in="SourceAlpha" dx="0" dy="0" />
    <feGaussianBlur result="blurOut" stdDeviation="4.472" />
    <feFlood flood-color="rgb(0, 62, 139)" result="floodOut" />
    <feComposite operator="atop" in="floodOut" in2="blurOut" />
    <feComponentTransfer><feFuncA type="linear" slope="0.1"/></feComponentTransfer>
    <feMerge>
    <feMergeNode/>
    <feMergeNode in="SourceGraphic"/>
  </feMerge>
</filter>

</defs>
<path fill-rule="evenodd"  stroke="rgb(223, 236, 240)" stroke-width="2px" stroke-linecap="butt" stroke-linejoin="miter" fill="none"
 d="M72.484,3.437 C110.877,3.437 142.000,34.547 142.000,72.922 C142.000,111.297 110.877,142.406 72.484,142.406 C34.092,142.406 2.969,111.297 2.969,72.922 C2.969,34.547 34.092,3.437 72.484,3.437 Z"/>
<g filter="url(#Filter_0)">
<path fill-rule="evenodd"  fill="rgb(255, 255, 255)"
 d="M71.500,19.250 C100.495,19.250 124.000,42.783 124.000,71.812 C124.000,100.842 100.495,124.375 71.500,124.375 C42.505,124.375 19.000,100.842 19.000,71.812 C19.000,42.783 42.505,19.250 71.500,19.250 Z"/>
</g>
<path fill-rule="evenodd"  fill="url(#PSgrad_0)"
 d="M87.844,55.203 C87.855,58.903 87.865,62.604 87.876,66.304 C88.395,65.786 88.915,65.268 89.434,64.750 C89.921,64.543 90.402,64.124 91.246,64.274 C92.562,64.507 93.829,65.893 93.154,67.542 C92.874,68.226 92.244,68.672 91.755,69.158 C90.886,70.036 90.017,70.914 89.148,71.791 C88.713,72.224 88.279,72.658 87.844,73.091 C87.844,74.455 87.844,75.819 87.844,77.183 C87.844,80.810 87.844,84.436 87.844,88.062 C87.844,91.049 88.037,92.957 86.254,94.215 C84.621,95.369 80.114,94.914 77.352,94.914 C71.099,94.914 64.845,94.914 58.593,94.914 C57.046,94.914 55.498,94.914 53.951,94.914 C52.576,94.914 51.165,94.976 50.231,94.565 C48.977,94.013 48.040,92.753 48.037,90.948 C48.036,90.208 47.907,89.222 48.355,88.919 C48.690,88.693 49.506,88.792 50.040,88.792 C51.418,88.792 52.796,88.792 54.173,88.792 C54.173,79.203 54.173,69.612 54.173,60.023 C54.173,58.206 54.173,56.386 54.173,54.568 C54.173,53.705 54.070,52.652 54.269,51.936 C54.541,50.955 55.178,50.136 55.954,49.652 C57.504,48.685 62.294,49.081 64.857,49.081 C71.067,49.081 77.278,49.081 83.488,49.081 C85.014,49.081 86.541,49.081 88.067,49.081 C89.442,49.081 90.852,49.019 91.787,49.430 C93.040,49.982 93.978,51.242 93.981,53.046 C93.982,53.786 94.111,54.773 93.663,55.076 C93.328,55.303 92.512,55.203 91.978,55.203 C90.600,55.203 89.222,55.203 87.844,55.203 ZM55.700,88.792 C64.167,88.792 72.637,88.792 81.104,88.792 C82.124,89.014 81.544,90.369 81.740,91.424 C81.962,92.624 83.146,93.774 84.696,93.296 C86.451,92.755 86.318,90.999 86.318,88.697 C86.318,85.451 86.318,82.205 86.318,78.959 C86.308,77.521 86.297,76.084 86.286,74.646 C84.146,76.781 82.004,78.917 79.864,81.053 C79.210,81.251 76.527,82.133 75.985,81.846 C75.830,81.764 75.648,81.525 75.603,81.338 C75.541,81.081 76.344,77.874 76.462,77.690 C79.747,74.414 83.033,71.136 86.318,67.859 C86.329,62.678 86.339,57.496 86.350,52.316 C86.490,51.627 86.886,51.174 87.049,50.604 C79.652,50.604 72.253,50.604 64.857,50.604 C62.587,50.604 57.670,50.217 56.463,51.174 C55.669,51.805 55.700,52.964 55.700,54.410 C55.700,56.524 55.700,58.639 55.700,60.753 C55.700,70.099 55.700,79.447 55.700,88.792 ZM90.070,50.604 C89.784,50.667 89.498,50.730 89.211,50.794 C88.397,51.134 87.497,52.305 87.876,53.681 C89.402,53.670 90.928,53.659 92.455,53.649 C92.490,51.763 91.811,50.689 90.070,50.604 ZM62.567,53.681 C68.194,53.681 73.823,53.681 79.450,53.681 C79.440,54.188 79.429,54.696 79.419,55.203 C73.802,55.192 68.184,55.182 62.567,55.171 C62.567,54.674 62.567,54.177 62.567,53.681 ZM65.079,56.947 C65.450,57.307 65.821,57.666 66.192,58.025 C65.503,58.712 64.814,59.400 64.125,60.087 C64.125,60.098 64.125,60.109 64.125,60.119 C64.137,61.052 64.385,63.091 63.807,63.481 C63.598,63.623 59.949,63.725 59.420,63.608 C59.162,63.551 58.915,63.380 58.815,63.163 C58.630,62.760 58.752,61.912 58.752,61.388 C58.752,60.494 58.518,58.752 59.070,58.375 C59.531,58.059 61.807,58.248 62.599,58.248 C62.926,58.248 63.541,58.169 63.712,58.343 C64.168,57.878 64.623,57.412 65.079,56.947 ZM67.177,58.248 C72.540,58.248 77.903,58.248 83.266,58.248 C83.266,58.755 83.266,59.263 83.266,59.770 C77.903,59.770 72.540,59.770 67.177,59.770 C67.177,59.263 67.177,58.755 67.177,58.248 ZM60.278,62.054 C61.052,62.054 61.825,62.054 62.599,62.054 C62.599,61.927 62.599,61.800 62.599,61.673 C62.504,61.727 62.408,61.779 62.313,61.832 C61.974,61.483 61.635,61.134 61.295,60.785 C61.295,60.764 61.295,60.743 61.295,60.722 C61.613,60.405 61.931,60.087 62.249,59.770 C61.592,59.781 60.935,59.791 60.278,59.802 C60.278,60.552 60.278,61.303 60.278,62.054 ZM67.177,61.292 C71.522,61.303 75.869,61.314 80.213,61.325 C80.203,61.832 80.192,62.340 80.182,62.847 C75.847,62.847 71.512,62.847 67.177,62.847 C67.177,62.329 67.177,61.811 67.177,61.292 ZM65.079,64.591 C65.450,64.940 65.821,65.290 66.192,65.638 C65.503,66.325 64.814,67.013 64.125,67.699 C64.125,67.710 64.125,67.721 64.125,67.731 C64.136,68.579 64.301,70.772 63.839,71.093 C63.680,71.204 59.734,71.354 59.292,71.220 C59.118,71.168 58.888,70.968 58.815,70.808 C58.631,70.401 58.752,69.558 58.752,69.032 C58.752,68.091 58.518,66.377 59.102,65.987 C59.526,65.703 61.901,65.891 62.631,65.891 C62.953,65.892 63.545,65.815 63.712,65.987 C64.168,65.522 64.623,65.056 65.079,64.591 ZM90.801,65.796 C90.340,66.035 90.013,66.258 89.720,66.653 C90.112,67.055 90.504,67.457 90.897,67.859 C91.130,67.637 91.363,67.414 91.596,67.192 C91.898,66.494 91.672,65.795 90.801,65.796 ZM67.177,65.891 C72.540,65.891 77.903,65.891 83.266,65.891 C83.266,66.399 83.266,66.906 83.266,67.414 C77.903,67.414 72.540,67.414 67.177,67.414 C67.177,66.906 67.177,66.399 67.177,65.891 ZM60.278,69.698 C61.041,69.698 61.804,69.698 62.567,69.698 C62.567,69.561 62.567,69.423 62.567,69.285 C62.216,69.546 61.576,68.787 61.295,68.397 C61.613,68.069 61.931,67.742 62.249,67.414 C61.592,67.425 60.935,67.435 60.278,67.446 C60.278,68.196 60.278,68.947 60.278,69.698 ZM88.607,67.731 C86.075,70.269 83.541,72.806 81.008,75.344 C79.949,76.390 78.889,77.437 77.829,78.484 C77.691,79.023 77.553,79.562 77.415,80.101 C79.552,79.769 80.387,78.342 81.612,77.120 C84.346,74.392 87.081,71.664 89.815,68.936 C89.413,68.535 89.010,68.133 88.607,67.731 ZM67.177,68.936 C71.522,68.947 75.869,68.958 80.213,68.968 C80.213,69.465 80.213,69.962 80.213,70.459 C75.869,70.459 71.522,70.459 67.177,70.459 C67.177,69.951 67.177,69.444 67.177,68.936 ZM65.079,72.236 C65.450,72.584 65.821,72.933 66.192,73.282 C65.503,73.969 64.814,74.656 64.125,75.344 C64.125,75.354 64.125,75.365 64.125,75.375 C64.142,76.347 64.385,78.379 63.775,78.769 C63.617,78.870 59.750,78.973 59.324,78.864 C59.141,78.818 58.892,78.608 58.815,78.452 C58.613,78.040 58.752,77.118 58.752,76.581 C58.752,75.772 58.544,74.231 58.943,73.758 C59.251,73.391 63.015,73.468 63.744,73.599 C64.189,73.145 64.634,72.689 65.079,72.236 ZM67.177,73.535 C70.494,73.535 73.812,73.535 77.129,73.535 C77.129,74.043 77.129,74.550 77.129,75.058 C73.812,75.058 70.494,75.058 67.177,75.058 C67.177,74.550 67.177,74.043 67.177,73.535 ZM60.278,75.058 C60.289,75.819 60.299,76.581 60.310,77.342 C61.062,77.342 61.815,77.342 62.567,77.342 C62.578,77.204 62.588,77.067 62.599,76.930 C62.173,77.130 61.621,76.490 61.295,76.042 C61.613,75.714 61.931,75.386 62.249,75.058 C61.592,75.058 60.935,75.058 60.278,75.058 ZM67.177,76.581 C69.477,76.581 71.777,76.581 74.077,76.581 C74.077,77.088 74.077,77.596 74.077,78.103 C71.777,78.103 69.477,78.103 67.177,78.103 C67.177,77.596 67.177,77.088 67.177,76.581 ZM65.079,79.879 C65.450,80.228 65.821,80.577 66.192,80.926 C65.503,81.613 64.814,82.300 64.125,82.988 C64.125,82.998 64.125,83.009 64.125,83.019 C64.141,83.964 64.380,85.977 63.807,86.381 C63.628,86.508 59.847,86.632 59.356,86.508 C59.197,86.403 59.038,86.297 58.879,86.191 C58.618,85.807 58.752,84.792 58.752,84.193 C58.752,83.416 58.545,81.919 58.911,81.433 C59.262,80.967 62.957,81.081 63.744,81.243 C64.189,80.789 64.634,80.334 65.079,79.879 ZM67.177,81.148 C69.477,81.148 71.777,81.148 74.077,81.148 C74.077,81.666 74.077,82.184 74.077,82.702 C71.777,82.702 69.477,82.702 67.177,82.702 C67.177,82.184 67.177,81.666 67.177,81.148 ZM60.278,82.702 C60.289,83.463 60.299,84.225 60.310,84.986 C61.073,84.975 61.836,84.964 62.599,84.953 C62.599,84.944 62.599,84.933 62.599,84.922 C62.599,84.806 62.599,84.690 62.599,84.573 C62.173,84.774 61.621,84.134 61.295,83.685 C61.317,83.665 61.338,83.643 61.359,83.622 C61.645,83.326 61.931,83.030 62.217,82.734 C62.217,82.723 62.217,82.712 62.217,82.702 C61.571,82.702 60.924,82.702 60.278,82.702 ZM67.177,84.225 C71.522,84.225 75.869,84.225 80.213,84.225 C80.203,84.732 80.192,85.240 80.182,85.747 C75.847,85.747 71.512,85.747 67.177,85.747 C67.177,85.240 67.177,84.732 67.177,84.225 ZM80.182,90.315 C69.976,90.325 59.768,90.336 49.563,90.346 C49.529,93.057 50.805,93.391 53.506,93.391 C54.788,93.391 56.071,93.391 57.353,93.391 C65.216,93.391 73.082,93.391 80.945,93.391 C80.945,93.380 80.945,93.370 80.945,93.360 C80.924,93.338 80.902,93.317 80.881,93.296 C80.491,92.310 80.184,91.839 80.182,90.315 Z"/>
</svg>