<svg 
 xmlns="http://www.w3.org/2000/svg"
 xmlns:xlink="http://www.w3.org/1999/xlink"
 width="47px" height="50px">
<defs>
<linearGradient id="PSgrad_0" x1="0%" x2="27.564%" y1="96.126%" y2="0%">
  <stop offset="0%" stop-color="rgb(34,159,255)" stop-opacity="1" />
  <stop offset="100%" stop-color="rgb(69,226,0)" stop-opacity="1" />
</linearGradient>

</defs>
<path fill-rule="evenodd"  fill="url(#PSgrad_0)"
 d="M21.654,0.053 C22.563,0.036 25.217,-0.143 25.710,0.226 C26.172,0.572 26.128,4.585 25.675,4.903 C25.395,5.100 22.209,5.186 21.619,5.042 C21.382,4.984 21.109,4.768 21.024,4.556 C21.024,3.217 21.024,1.877 21.024,0.538 C21.138,0.269 21.400,0.189 21.654,0.053 ZM22.668,1.716 C22.668,2.270 22.668,2.825 22.668,3.379 C23.216,3.379 23.764,3.379 24.312,3.379 C24.312,2.825 24.312,2.270 24.312,1.716 C23.764,1.716 23.216,1.716 22.668,1.716 ZM18.961,2.132 C19.031,2.143 19.101,2.154 19.171,2.166 C19.264,2.697 19.357,3.229 19.450,3.760 C15.065,4.335 9.466,7.661 7.350,10.480 C7.280,10.411 7.210,10.342 7.140,10.273 C6.791,9.972 6.441,9.673 6.091,9.372 C6.208,9.257 6.324,9.141 6.441,9.026 C6.825,8.264 7.909,7.568 8.574,7.051 C10.737,5.370 13.024,4.039 15.848,2.963 C16.886,2.686 17.923,2.409 18.961,2.132 ZM27.844,2.132 C29.203,2.210 30.584,2.775 31.691,3.206 C35.110,4.533 38.983,6.801 40.993,9.476 C40.562,9.845 40.130,10.215 39.699,10.585 C39.300,9.780 37.844,8.717 37.111,8.160 C34.536,6.202 31.449,4.341 27.529,3.760 C27.634,3.217 27.739,2.674 27.844,2.132 ZM22.773,8.367 C31.092,8.223 36.566,12.897 38.965,18.622 C40.539,22.379 40.628,27.463 39.035,31.302 C37.085,35.999 33.323,39.381 28.228,40.968 C26.986,41.355 25.664,41.380 24.207,41.627 C21.754,42.042 18.356,40.896 16.828,40.240 C12.216,38.262 8.969,34.724 7.420,29.707 C6.832,27.803 6.405,24.843 6.895,22.434 C7.117,21.346 7.323,20.272 7.700,19.315 C9.586,14.521 12.936,11.210 17.772,9.338 C18.821,8.931 19.986,8.743 21.199,8.506 C21.724,8.460 22.248,8.413 22.773,8.367 ZM22.633,15.019 C22.633,13.390 22.633,11.762 22.633,10.134 C20.564,10.884 18.725,12.731 18.052,14.811 C19.578,14.881 21.106,14.950 22.633,15.019 ZM24.347,15.019 C25.874,14.950 27.401,14.881 28.928,14.811 C28.928,14.800 28.928,14.788 28.928,14.776 C27.901,12.650 26.677,10.990 24.347,10.134 C24.347,11.762 24.347,13.390 24.347,15.019 ZM2.349,10.862 C3.169,10.846 5.848,10.658 6.336,10.966 C6.835,11.282 6.961,15.282 6.441,15.678 C6.154,15.895 2.953,16.013 2.314,15.851 C2.131,15.804 1.879,15.615 1.790,15.469 C1.614,15.184 1.574,11.664 1.755,11.312 C1.873,11.081 2.125,10.995 2.349,10.862 ZM18.436,10.896 C17.982,11.081 17.527,11.266 17.072,11.451 C15.832,11.991 13.880,13.177 13.121,14.187 C14.170,14.327 15.219,14.465 16.268,14.603 C16.553,13.178 17.773,11.930 18.541,10.896 C18.506,10.896 18.471,10.896 18.436,10.896 ZM28.438,10.896 C29.287,12.084 30.125,13.181 30.746,14.638 C31.784,14.488 32.821,14.338 33.859,14.187 C33.742,14.061 33.626,13.934 33.509,13.806 C33.101,13.483 32.693,13.160 32.285,12.837 C31.250,12.107 29.841,11.162 28.438,10.896 ZM41.763,11.694 C42.614,11.678 45.312,11.497 45.784,11.832 C46.347,12.230 46.313,16.211 45.749,16.579 C45.489,16.748 42.248,16.814 41.728,16.682 C41.481,16.619 41.221,16.386 41.133,16.163 C41.133,14.846 41.133,13.530 41.133,12.213 C41.241,11.929 41.511,11.841 41.763,11.694 ZM3.363,12.525 C3.363,13.079 3.363,13.634 3.363,14.187 C3.923,14.187 4.482,14.187 5.042,14.187 C5.042,13.634 5.042,13.079 5.042,12.525 C4.482,12.525 3.923,12.525 3.363,12.525 ZM42.777,13.356 C42.777,13.910 42.777,14.465 42.777,15.019 C43.336,15.019 43.896,15.019 44.455,15.019 C44.455,14.465 44.455,13.910 44.455,13.356 C43.896,13.356 43.336,13.356 42.777,13.356 ZM14.275,24.165 C14.292,22.017 14.559,19.955 15.044,18.172 C15.231,17.525 15.417,16.879 15.603,16.232 C14.310,16.035 13.016,15.839 11.722,15.643 C9.989,18.348 8.857,20.028 8.434,24.165 C10.381,24.165 12.328,24.165 14.275,24.165 ZM32.705,24.165 C34.651,24.165 36.599,24.165 38.545,24.165 C38.545,24.131 38.545,24.096 38.545,24.061 C38.440,23.300 38.335,22.537 38.230,21.775 C37.730,19.815 36.534,16.718 35.223,15.643 C33.941,15.839 32.658,16.035 31.376,16.232 C31.597,17.029 31.819,17.825 32.040,18.622 C32.471,20.297 32.653,22.183 32.705,24.165 ZM22.633,24.165 C22.633,21.671 22.633,19.176 22.633,16.682 C20.873,16.601 19.112,16.520 17.352,16.440 C17.059,17.610 16.657,18.811 16.373,20.077 C16.077,21.395 16.140,22.784 15.953,24.165 C18.180,24.165 20.407,24.165 22.633,24.165 ZM24.347,16.682 C24.347,19.176 24.347,21.671 24.347,24.165 C26.573,24.165 28.800,24.165 31.026,24.165 C30.709,21.355 30.602,18.600 29.592,16.405 C28.284,16.745 25.875,16.679 24.347,16.682 ZM1.335,17.236 C1.871,17.421 2.408,17.606 2.944,17.790 C1.371,21.755 1.322,28.241 2.944,32.203 C2.683,32.281 1.417,32.787 1.335,32.688 C0.888,31.934 0.797,30.882 0.566,29.951 C-0.082,27.351 -0.228,23.487 0.391,20.701 C0.659,19.492 1.034,18.352 1.335,17.236 ZM46.064,18.968 C46.443,19.146 46.650,21.419 46.764,22.052 C47.455,25.921 46.459,29.803 45.644,32.757 C45.108,32.573 44.572,32.388 44.036,32.203 C44.880,30.090 45.735,26.187 45.225,23.126 C45.007,21.819 44.743,20.575 44.560,19.384 C45.061,19.246 45.563,19.106 46.064,18.968 ZM14.275,25.828 C12.328,25.828 10.381,25.828 8.434,25.828 C8.652,28.902 9.592,31.237 10.917,33.207 C11.178,33.595 11.400,34.061 11.757,34.351 C13.039,34.155 14.321,33.958 15.603,33.762 C15.382,32.965 15.160,32.168 14.939,31.372 C14.508,29.698 14.326,27.812 14.275,25.828 ZM22.633,33.312 C22.633,30.817 22.633,28.323 22.633,25.828 C20.407,25.828 18.180,25.828 15.953,25.828 C16.271,28.638 16.377,31.394 17.387,33.589 C18.696,33.249 21.104,33.315 22.633,33.312 ZM24.347,25.828 C24.347,28.323 24.347,30.817 24.347,33.312 C26.107,33.392 27.867,33.474 29.627,33.554 C29.920,32.384 30.322,31.183 30.606,29.916 C30.902,28.599 30.839,27.210 31.026,25.828 C28.800,25.828 26.573,25.828 24.347,25.828 ZM32.705,25.828 C32.667,27.984 32.422,30.030 31.935,31.822 C31.749,32.469 31.562,33.116 31.376,33.762 C32.670,33.958 33.964,34.155 35.258,34.351 C36.990,31.645 38.122,29.966 38.545,25.828 C36.599,25.828 34.651,25.828 32.705,25.828 ZM2.314,34.143 C3.222,34.127 5.958,33.945 6.441,34.315 C6.958,34.714 6.837,38.715 6.336,39.028 C6.053,39.204 2.889,39.264 2.349,39.132 C2.128,39.078 1.847,38.865 1.755,38.682 C1.581,38.337 1.589,34.950 1.755,34.593 C1.861,34.364 2.104,34.275 2.314,34.143 ZM40.888,34.143 C41.817,34.126 44.596,33.949 45.050,34.351 C45.517,34.765 45.394,38.679 44.945,38.994 C44.663,39.191 41.515,39.275 40.923,39.132 C40.674,39.072 40.377,38.836 40.294,38.612 C40.294,37.296 40.294,35.980 40.294,34.663 C40.398,34.382 40.648,34.292 40.888,34.143 ZM22.633,34.975 C21.572,35.020 20.511,35.067 19.450,35.113 C18.984,35.148 18.518,35.183 18.052,35.217 C19.078,37.344 20.303,39.004 22.633,39.860 C22.633,38.231 22.633,36.603 22.633,34.975 ZM24.347,34.975 C24.347,36.603 24.347,38.231 24.347,39.860 C26.682,39.011 27.895,37.338 28.928,35.217 C28.928,35.205 28.928,35.194 28.928,35.183 C27.401,35.113 25.874,35.044 24.347,34.975 ZM16.198,35.356 C15.172,35.506 14.146,35.656 13.121,35.807 C14.026,36.972 16.848,38.765 18.541,39.097 C18.495,39.051 18.448,39.004 18.401,38.959 C17.947,38.312 17.492,37.664 17.037,37.019 C16.758,36.464 16.478,35.910 16.198,35.356 ZM30.746,35.356 C30.167,36.814 29.298,37.936 28.438,39.097 C29.908,38.856 33.116,36.799 33.859,35.807 C32.821,35.656 31.784,35.506 30.746,35.356 ZM3.363,35.807 C3.363,36.359 3.363,36.915 3.363,37.468 C3.923,37.468 4.482,37.468 5.042,37.468 C5.042,36.915 5.042,36.359 5.042,35.807 C4.482,35.807 3.923,35.807 3.363,35.807 ZM41.937,35.807 C41.937,36.359 41.937,36.915 41.937,37.468 C42.497,37.468 43.057,37.468 43.616,37.468 C43.616,36.915 43.616,36.359 43.616,35.807 C43.057,35.807 42.497,35.807 41.937,35.807 ZM38.965,40.206 C39.361,40.599 39.757,40.991 40.154,41.383 C39.723,41.938 39.100,42.406 38.545,42.839 C36.279,44.607 33.966,46.008 30.921,47.065 C30.245,47.301 29.476,47.602 28.683,47.689 C28.567,47.146 28.450,46.603 28.333,46.061 C29.164,45.981 30.015,45.634 30.711,45.368 C33.388,44.343 35.429,43.148 37.461,41.557 C37.972,41.157 38.577,40.724 38.965,40.206 ZM8.119,40.344 C8.807,40.945 9.495,41.545 10.183,42.145 C12.640,43.988 15.756,45.696 19.450,46.233 C19.346,46.777 19.241,47.320 19.136,47.862 C19.124,47.862 19.112,47.862 19.101,47.862 C18.471,47.713 17.842,47.562 17.212,47.412 C14.011,46.472 11.445,45.183 9.099,43.428 C8.388,42.804 7.676,42.180 6.965,41.557 C7.222,41.303 7.478,41.049 7.735,40.794 C7.863,40.644 7.991,40.494 8.119,40.344 ZM21.619,44.952 C22.473,44.936 25.202,44.755 25.675,45.091 C26.126,45.410 26.174,49.424 25.710,49.767 C25.424,49.980 22.059,50.106 21.514,49.906 C21.338,49.842 21.095,49.625 21.024,49.456 C21.024,48.117 21.024,46.777 21.024,45.437 C21.132,45.174 21.382,45.093 21.619,44.952 ZM22.668,46.615 C22.668,47.169 22.668,47.724 22.668,48.278 C23.216,48.278 23.764,48.278 24.312,48.278 C24.312,47.724 24.312,47.169 24.312,46.615 C23.764,46.615 23.216,46.615 22.668,46.615 Z"/>
</svg>