<svg 
 xmlns="http://www.w3.org/2000/svg"
 xmlns:xlink="http://www.w3.org/1999/xlink"
 width="145px" height="146px">
<defs>
<linearGradient id="PSgrad_0" x1="0%" x2="27.564%" y1="96.126%" y2="0%">
  <stop offset="0%" stop-color="rgb(34,159,255)" stop-opacity="1" />
  <stop offset="100%" stop-color="rgb(69,226,0)" stop-opacity="1" />
</linearGradient>
<filter filterUnits="userSpaceOnUse" id="Filter_0" x="0px" y="0px" width="144px" height="145px"  >
    <feOffset in="SourceAlpha" dx="0" dy="0" />
    <feGaussianBlur result="blurOut" stdDeviation="4.472" />
    <feFlood flood-color="rgb(0, 62, 139)" result="floodOut" />
    <feComposite operator="atop" in="floodOut" in2="blurOut" />
    <feComponentTransfer><feFuncA type="linear" slope="0.1"/></feComponentTransfer>
    <feMerge>
    <feMergeNode/>
    <feMergeNode in="SourceGraphic"/>
  </feMerge>
</filter>

</defs>
<path fill-rule="evenodd"  stroke="rgb(223, 236, 240)" stroke-width="2px" stroke-linecap="butt" stroke-linejoin="miter" fill="none"
 d="M72.484,3.593 C110.877,3.593 142.000,34.682 142.000,73.031 C142.000,111.381 110.877,142.468 72.484,142.468 C34.092,142.468 2.969,111.381 2.969,73.031 C2.969,34.682 34.092,3.593 72.484,3.593 Z"/>
<g filter="url(#Filter_0)">
<path fill-rule="evenodd"  fill="rgb(255, 255, 255)"
 d="M71.500,19.406 C100.495,19.406 124.000,42.925 124.000,71.937 C124.000,100.950 100.495,124.468 71.500,124.468 C42.505,124.468 19.000,100.950 19.000,71.937 C19.000,42.925 42.505,19.406 71.500,19.406 Z"/>
</g>
<path fill-rule="evenodd"  fill="url(#PSgrad_0)"
 d="M90.009,46.996 C90.977,47.014 91.067,47.806 91.394,48.449 C92.179,49.994 92.964,51.541 93.749,53.086 C94.026,53.629 94.715,54.683 93.991,55.197 C93.556,55.506 92.951,55.251 92.744,54.920 C91.937,53.282 91.128,51.644 90.320,50.006 C90.309,50.006 90.297,50.006 90.286,50.006 C90.286,50.030 90.286,50.052 90.286,50.075 C89.662,51.828 89.039,53.582 88.416,55.335 C87.261,58.234 85.866,60.937 84.295,63.433 C78.890,72.020 71.015,78.088 60.920,82.015 C58.606,82.916 56.065,83.411 53.440,83.988 C52.113,84.160 50.785,84.334 49.458,84.507 C49.435,84.496 49.411,84.484 49.388,84.472 C49.342,83.942 49.296,83.411 49.250,82.880 C49.261,82.858 49.273,82.834 49.284,82.811 C50.681,82.825 52.144,82.530 53.371,82.258 C57.501,81.341 60.598,80.401 64.002,78.901 C73.306,74.801 80.168,67.778 84.884,59.073 C86.468,56.147 87.368,52.770 88.693,49.522 C87.192,50.272 85.691,51.022 84.191,51.771 C83.638,52.053 82.842,52.093 82.667,51.391 C82.419,50.395 83.731,50.136 84.260,49.868 C86.176,48.910 88.093,47.953 90.009,46.996 ZM50.150,52.013 C53.763,52.013 57.377,52.013 60.989,52.013 C60.989,52.567 60.989,53.120 60.989,53.675 C57.377,53.675 53.763,53.675 50.150,53.675 C50.150,53.120 50.150,52.567 50.150,52.013 ZM50.150,55.335 C53.763,55.335 57.377,55.335 60.989,55.335 C60.989,55.889 60.989,56.443 60.989,56.996 C57.377,56.996 53.763,56.996 50.150,56.996 C50.150,56.443 50.150,55.889 50.150,55.335 ZM57.665,58.658 C57.665,59.211 57.665,59.764 57.665,60.319 C55.160,60.319 52.655,60.319 50.150,60.319 C50.162,59.764 50.173,59.211 50.185,58.658 C52.678,58.658 55.172,58.658 57.665,58.658 ZM57.665,61.979 C57.665,62.545 57.665,63.110 57.665,63.675 C55.160,63.663 52.655,63.652 50.150,63.640 C50.162,63.087 50.173,62.533 50.185,61.979 C52.678,61.979 55.172,61.979 57.665,61.979 ZM86.615,62.845 C88.242,62.845 89.870,62.845 91.498,62.845 C92.258,62.845 93.053,62.744 93.368,63.190 C93.676,63.628 93.506,67.512 93.506,68.450 C93.506,73.214 93.506,77.979 93.506,82.742 C93.506,85.464 93.506,88.187 93.506,90.909 C93.506,91.960 93.736,93.389 92.918,93.642 C91.221,93.653 89.524,93.666 87.827,93.677 C87.129,93.677 86.413,93.743 86.130,93.331 C85.809,92.863 85.992,88.748 85.992,87.760 C85.992,82.743 85.992,77.724 85.992,72.707 C85.992,70.365 85.992,68.023 85.992,65.682 C85.992,64.322 85.735,63.410 86.615,62.845 ZM87.654,64.506 C87.654,73.663 87.654,82.824 87.654,91.982 C89.039,91.982 90.424,91.982 91.809,91.982 C91.809,82.824 91.809,73.663 91.809,64.506 C90.424,64.506 89.039,64.506 87.654,64.506 ZM77.438,74.506 C79.100,74.506 80.763,74.506 82.425,74.506 C83.269,74.506 84.071,74.405 84.295,75.026 C84.306,79.800 84.318,84.577 84.330,89.351 C84.330,90.596 84.720,93.353 83.741,93.642 C82.021,93.653 80.301,93.666 78.581,93.677 C77.797,93.677 77.134,93.719 76.884,93.193 C76.626,92.650 76.815,90.830 76.815,90.077 C76.815,87.553 76.815,85.026 76.815,82.500 C76.826,80.020 76.838,77.540 76.850,75.060 C76.947,74.773 77.202,74.660 77.438,74.506 ZM78.512,76.167 C78.512,81.438 78.512,86.710 78.512,91.982 C79.897,91.982 81.282,91.982 82.667,91.982 C82.667,86.710 82.667,81.438 82.667,76.167 C81.282,76.167 79.897,76.167 78.512,76.167 ZM68.365,80.320 C69.993,80.320 71.621,80.320 73.248,80.320 C74.096,80.320 74.881,80.228 75.118,80.839 C75.130,84.126 75.141,87.414 75.153,90.701 C75.153,91.761 75.413,93.370 74.599,93.642 C72.890,93.653 71.182,93.666 69.473,93.677 C68.743,93.677 68.065,93.733 67.777,93.296 C67.548,92.950 67.673,92.026 67.673,91.497 C67.673,89.974 67.673,88.451 67.673,86.929 C67.684,84.900 67.696,82.869 67.707,80.839 C67.827,80.536 68.087,80.470 68.365,80.320 ZM69.335,82.015 C69.335,85.337 69.335,88.660 69.335,91.982 C70.720,91.982 72.105,91.982 73.490,91.982 C73.490,88.660 73.490,85.337 73.490,82.015 C72.105,82.015 70.720,82.015 69.335,82.015 ZM59.119,84.507 C60.712,84.507 62.305,84.507 63.898,84.507 C64.543,84.507 65.424,84.402 65.768,84.715 C66.129,85.042 66.010,86.013 66.010,86.687 C66.010,88.336 66.010,89.986 66.010,91.635 C66.010,92.310 66.111,93.166 65.733,93.469 C65.251,93.857 63.855,93.677 63.032,93.677 C61.971,93.677 59.027,93.906 58.634,93.331 C58.349,92.913 58.496,91.804 58.496,91.151 C58.507,89.109 58.519,87.068 58.531,85.026 C58.634,84.744 58.882,84.658 59.119,84.507 ZM60.158,86.168 C60.158,88.105 60.158,90.043 60.158,91.982 C61.543,91.982 62.929,91.982 64.314,91.982 C64.314,90.043 64.314,88.105 64.314,86.168 C62.929,86.168 61.543,86.168 60.158,86.168 ZM49.977,86.999 C51.604,86.999 53.232,86.999 54.860,86.999 C55.527,86.998 56.368,86.894 56.661,87.275 C57.020,87.743 56.834,89.956 56.834,90.805 C56.834,91.525 57.019,92.863 56.695,93.331 C56.301,93.901 54.618,93.677 53.682,93.677 C52.721,93.677 49.918,93.880 49.527,93.400 C49.232,93.037 49.319,92.216 49.319,91.566 C49.331,90.228 49.342,88.890 49.354,87.552 C49.458,87.249 49.720,87.154 49.977,86.999 ZM51.016,88.659 C51.016,89.766 51.016,90.874 51.016,91.982 C52.401,91.982 53.786,91.982 55.171,91.982 C55.171,90.874 55.171,89.766 55.171,88.659 C53.786,88.659 52.401,88.659 51.016,88.659 ZM45.995,95.338 C62.661,95.338 79.333,95.338 96.000,95.338 C96.000,95.891 96.000,96.446 96.000,96.999 C79.333,96.999 62.661,96.999 45.995,96.999 C45.995,96.446 45.995,95.891 45.995,95.338 Z"/>
</svg>