<svg 
 xmlns="http://www.w3.org/2000/svg"
 xmlns:xlink="http://www.w3.org/1999/xlink"
 width="46px" height="46px">
<defs>
<linearGradient id="PSgrad_0" x1="0%" x2="27.564%" y1="96.126%" y2="0%">
  <stop offset="0%" stop-color="rgb(34,159,255)" stop-opacity="1" />
  <stop offset="100%" stop-color="rgb(69,226,0)" stop-opacity="1" />
</linearGradient>

</defs>
<path fill-rule="evenodd"  fill="url(#PSgrad_0)"
 d="M41.287,-0.005 C42.671,-0.000 42.319,1.798 42.955,2.619 C43.192,2.925 43.633,3.247 44.010,3.403 C44.703,3.689 45.659,3.459 45.916,4.187 C46.375,5.486 44.725,5.291 44.010,5.583 C43.491,5.797 42.995,6.249 42.716,6.708 C42.298,7.398 42.556,8.803 41.627,8.991 C40.460,9.229 40.688,7.948 40.436,7.220 C40.297,6.821 40.029,6.436 39.755,6.163 C39.493,5.902 39.111,5.648 38.734,5.516 C38.069,5.282 37.301,5.494 37.031,4.868 C36.458,3.538 38.165,3.705 38.904,3.403 C39.390,3.204 39.900,2.774 40.163,2.346 C40.722,1.439 40.272,0.557 41.287,-0.005 ZM41.423,3.608 C41.284,3.921 40.884,4.318 40.572,4.459 C40.619,4.524 40.575,4.480 40.640,4.528 C40.882,4.825 41.252,5.010 41.423,5.379 C41.488,5.332 41.443,5.375 41.491,5.311 C41.774,5.039 42.058,4.766 42.342,4.494 C42.342,4.482 42.342,4.471 42.342,4.459 C41.940,4.270 41.775,3.835 41.423,3.608 ZM8.097,7.731 C18.070,7.742 28.046,7.754 38.019,7.764 C38.626,7.986 39.705,10.075 40.095,10.696 C41.457,12.774 42.819,14.853 44.180,16.931 C44.581,17.569 45.812,19.006 45.950,19.692 C46.105,20.456 45.235,20.945 44.929,21.327 C43.817,22.600 42.705,23.872 41.593,25.144 C37.123,30.255 32.651,35.367 28.181,40.478 C26.899,41.943 25.616,43.409 24.334,44.874 C24.035,45.248 23.584,46.164 22.802,45.999 C22.158,45.862 20.881,44.081 20.453,43.545 C18.445,41.273 16.436,39.002 14.428,36.730 C13.973,36.161 12.048,34.552 12.794,33.629 C13.604,32.626 14.900,34.423 15.245,34.856 C17.163,37.048 19.081,39.240 20.998,41.433 C18.979,34.538 16.958,27.642 14.939,20.748 C10.934,20.759 6.927,20.771 2.922,20.782 C2.956,20.816 2.990,20.850 3.024,20.884 C3.402,21.651 6.488,23.913 5.169,24.871 C4.565,25.311 3.937,24.769 3.637,24.394 C2.764,23.372 1.890,22.350 1.016,21.327 C0.696,20.927 0.110,20.577 -0.005,19.997 C-0.134,19.352 1.439,17.423 1.765,16.931 C3.194,14.762 4.625,12.592 6.054,10.422 C6.651,9.524 7.137,8.264 8.097,7.731 ZM9.969,9.537 C11.852,12.410 13.736,15.285 15.620,18.159 C15.654,18.135 15.688,18.112 15.722,18.090 C17.582,15.239 19.444,12.388 21.305,9.537 C17.526,9.537 13.747,9.537 9.969,9.537 ZM24.675,9.537 C26.558,12.421 28.442,15.308 30.325,18.192 C30.348,18.180 30.371,18.170 30.393,18.159 C32.265,15.285 34.138,12.410 36.010,9.537 C32.232,9.537 28.453,9.537 24.675,9.537 ZM8.267,10.287 C6.372,13.171 4.477,16.057 2.582,18.942 C6.371,18.942 10.162,18.942 13.952,18.942 C13.952,18.930 13.952,18.919 13.952,18.908 C13.929,18.885 13.906,18.862 13.884,18.840 C12.011,15.989 10.139,13.137 8.267,10.287 ZM22.938,10.287 C21.066,13.160 19.194,16.034 17.322,18.908 C17.322,18.919 17.322,18.930 17.322,18.942 C21.100,18.942 24.879,18.942 28.657,18.942 C28.635,18.919 28.612,18.896 28.589,18.874 C27.228,16.796 25.866,14.716 24.504,12.638 C23.982,11.854 23.460,11.070 22.938,10.287 ZM37.678,10.287 C35.795,13.160 33.911,16.034 32.027,18.908 C32.027,18.919 32.027,18.930 32.027,18.942 C35.806,18.942 39.585,18.942 43.363,18.942 C43.352,18.908 43.340,18.874 43.329,18.840 C41.446,15.989 39.562,13.137 37.678,10.287 ZM16.845,20.748 C18.887,27.744 20.930,34.743 22.972,41.740 C22.984,41.740 22.995,41.740 23.007,41.740 C25.049,34.754 27.092,27.767 29.134,20.782 C29.123,20.771 29.111,20.759 29.100,20.748 C25.015,20.748 20.930,20.748 16.845,20.748 ZM31.006,20.748 C28.987,27.642 26.967,34.538 24.947,41.433 C30.971,34.550 36.998,27.665 43.023,20.782 C43.023,20.771 43.023,20.759 43.023,20.748 C39.018,20.748 35.011,20.748 31.006,20.748 ZM8.948,24.257 C10.121,24.375 9.745,25.285 10.037,26.268 C10.226,26.904 10.554,27.472 10.922,27.939 C11.412,28.558 12.238,29.029 13.101,29.267 C13.821,29.467 14.661,29.241 14.939,29.880 C15.122,30.301 14.924,30.816 14.667,31.005 C14.274,31.294 13.361,31.193 12.862,31.346 C11.812,31.668 10.959,32.420 10.445,33.288 C9.980,34.076 10.123,36.095 9.152,36.287 C8.064,36.502 8.232,35.400 8.063,34.617 C7.873,33.745 7.428,32.821 6.837,32.334 C6.259,31.857 5.615,31.444 4.761,31.243 C3.954,31.054 3.220,31.280 3.024,30.494 C2.904,30.008 3.222,29.611 3.467,29.472 C4.000,29.393 4.534,29.312 5.067,29.233 C6.130,28.911 6.983,28.216 7.518,27.359 C7.764,26.964 7.955,26.437 8.063,25.928 C8.158,25.474 8.042,24.940 8.267,24.633 C8.429,24.410 8.682,24.384 8.948,24.257 ZM8.982,28.347 C8.757,28.893 8.196,29.466 7.756,29.812 C7.545,29.979 7.242,30.081 7.109,30.324 C7.801,30.602 8.702,31.509 8.982,32.197 C9.004,32.197 9.027,32.197 9.050,32.197 C9.331,31.407 10.247,30.710 10.922,30.289 C10.911,30.266 10.899,30.245 10.888,30.221 C9.992,29.847 9.654,28.935 8.982,28.347 Z"/>
</svg>