<svg 
 xmlns="http://www.w3.org/2000/svg"
 xmlns:xlink="http://www.w3.org/1999/xlink"
 width="145px" height="145px">
<defs>
<linearGradient id="PSgrad_0" x1="0%" x2="27.564%" y1="96.126%" y2="0%">
  <stop offset="0%" stop-color="rgb(34,159,255)" stop-opacity="1" />
  <stop offset="100%" stop-color="rgb(69,226,0)" stop-opacity="1" />
</linearGradient>
<filter filterUnits="userSpaceOnUse" id="Filter_0" x="0px" y="0px" width="144px" height="144px"  >
    <feOffset in="SourceAlpha" dx="0" dy="0" />
    <feGaussianBlur result="blurOut" stdDeviation="4.472" />
    <feFlood flood-color="rgb(0, 62, 139)" result="floodOut" />
    <feComposite operator="atop" in="floodOut" in2="blurOut" />
    <feComponentTransfer><feFuncA type="linear" slope="0.1"/></feComponentTransfer>
    <feMerge>
    <feMergeNode/>
    <feMergeNode in="SourceGraphic"/>
  </feMerge>
</filter>

</defs>
<path fill-rule="evenodd"  stroke="rgb(223, 236, 240)" stroke-width="2px" stroke-linecap="butt" stroke-linejoin="miter" fill="none"
 d="M72.484,3.156 C110.877,3.156 142.000,34.237 142.000,72.578 C142.000,110.918 110.877,142.000 72.484,142.000 C34.092,142.000 2.969,110.918 2.969,72.578 C2.969,34.237 34.092,3.156 72.484,3.156 Z"/>
<g filter="url(#Filter_0)">
<path fill-rule="evenodd"  fill="rgb(255, 255, 255)"
 d="M71.500,19.000 C100.495,19.000 124.000,42.505 124.000,71.500 C124.000,100.495 100.495,124.000 71.500,124.000 C42.505,124.000 19.000,100.495 19.000,71.500 C19.000,42.505 42.505,19.000 71.500,19.000 Z"/>
</g>
<path fill-rule="evenodd"  fill="url(#PSgrad_0)"
 d="M70.809,39.981 C71.330,39.971 71.662,40.109 71.848,40.425 C72.061,40.785 72.105,45.496 71.888,45.944 C71.780,46.168 71.481,46.411 71.209,46.468 C70.666,46.581 70.229,46.167 70.130,45.823 C70.144,44.050 70.157,42.277 70.170,40.504 C70.296,40.235 70.563,40.135 70.809,39.981 ZM49.841,48.845 C50.602,48.890 50.949,49.480 51.358,49.892 C52.437,50.913 53.515,51.933 54.593,52.954 C54.905,53.376 54.817,54.092 54.434,54.365 C53.748,54.854 53.107,54.154 52.756,53.800 C52.102,53.141 49.255,50.749 49.042,50.094 C48.798,49.345 49.394,49.061 49.841,48.845 ZM92.817,49.651 C93.584,49.633 94.286,50.185 93.895,50.980 C92.511,52.229 91.126,53.479 89.741,54.728 C89.373,55.023 88.787,55.375 88.263,54.969 C87.672,54.510 88.047,53.653 88.463,53.317 C89.929,52.132 91.215,50.673 92.817,49.651 ZM80.874,90.184 C82.008,90.142 83.525,90.229 82.991,91.513 C82.683,92.254 81.119,92.073 80.076,92.036 C80.087,93.319 80.344,97.352 79.676,97.799 C79.210,98.110 76.984,97.919 76.201,97.919 C73.153,97.919 70.103,97.919 67.055,97.919 C66.234,97.919 63.785,98.125 63.301,97.799 C62.631,97.349 62.890,93.322 62.901,92.036 C61.992,92.071 60.429,92.227 60.065,91.674 C59.290,90.497 60.747,90.144 61.863,90.184 C62.062,85.957 60.604,83.154 58.787,80.836 C58.082,80.071 57.376,79.305 56.670,78.540 C55.680,77.219 54.802,75.718 54.154,74.067 C53.765,73.074 53.512,71.961 53.275,70.843 C52.654,67.913 53.216,64.412 54.074,62.222 C56.167,56.882 59.875,53.355 65.178,51.262 C66.876,50.592 68.706,50.537 70.809,50.175 C71.488,50.202 72.167,50.228 72.846,50.255 C75.105,50.646 76.849,50.856 78.598,51.585 C84.574,54.075 88.402,58.519 89.701,65.767 C90.078,67.871 89.827,70.531 89.302,72.295 C88.587,74.694 87.556,76.724 86.226,78.499 C85.468,79.332 84.709,80.164 83.950,80.997 C82.057,83.396 80.857,85.770 80.874,90.184 ZM63.700,90.184 C68.812,90.184 73.925,90.184 79.037,90.184 C78.947,85.462 80.349,82.605 82.352,80.030 C83.138,79.171 83.923,78.311 84.709,77.451 C85.905,75.857 86.861,74.045 87.504,71.891 C90.173,62.964 83.770,55.838 78.118,53.398 C76.696,52.784 73.284,51.650 71.049,52.028 C69.355,52.314 67.873,52.343 66.456,52.794 C61.351,54.415 57.773,57.946 55.832,62.785 C55.083,64.652 54.529,67.614 55.033,70.199 C55.292,71.528 55.593,72.783 56.071,73.906 C58.474,79.551 64.268,81.467 63.700,90.184 ZM68.653,54.486 C69.415,54.477 70.016,54.529 70.490,54.807 C70.663,54.942 70.836,55.076 71.009,55.211 C71.448,55.238 71.888,55.265 72.327,55.291 C73.479,55.612 74.445,56.451 75.083,57.306 C75.239,57.516 76.401,59.683 76.401,59.683 C76.920,59.616 77.440,59.549 77.959,59.482 C79.037,59.312 80.294,59.551 81.034,59.845 C83.372,60.771 84.245,63.304 83.111,66.130 C82.752,66.828 82.392,67.527 82.033,68.225 C81.799,68.600 81.398,68.927 81.274,69.393 C81.287,69.407 81.300,69.421 81.314,69.434 C85.096,69.084 86.301,73.124 83.590,74.833 C83.640,78.877 80.192,79.369 76.401,78.942 C75.600,81.965 71.964,84.983 68.732,82.408 C68.038,81.853 67.436,80.976 66.975,80.191 C66.775,79.775 66.576,79.358 66.376,78.942 C66.285,78.898 64.002,79.247 63.380,79.144 C60.848,78.724 59.164,77.658 59.187,74.671 C57.423,73.647 57.804,70.706 59.347,69.756 C59.670,69.556 60.117,69.424 60.545,69.353 C60.920,69.290 61.313,69.465 61.543,69.313 C60.886,68.273 60.148,67.283 59.666,66.049 C58.324,62.612 59.853,60.201 62.861,59.562 C64.017,59.317 65.320,59.604 66.376,59.683 C66.469,59.495 66.562,59.307 66.655,59.120 C66.509,58.756 66.363,58.394 66.216,58.031 C65.704,55.802 67.346,55.094 68.653,54.486 ZM68.852,56.339 C67.635,56.946 67.872,58.706 69.172,58.514 C70.516,58.317 70.481,56.256 68.852,56.339 ZM72.008,57.185 C72.041,58.820 70.590,60.808 68.852,60.328 C69.731,60.690 70.610,61.053 71.488,61.415 C72.350,60.774 73.712,60.769 74.604,60.127 C74.108,59.061 73.256,57.455 72.008,57.185 ZM63.620,61.334 C62.666,61.695 61.843,61.601 61.343,62.383 C60.401,63.856 61.935,67.109 62.781,67.822 C63.007,67.643 64.743,65.996 64.818,65.848 C64.872,65.418 64.925,64.988 64.978,64.559 C65.218,63.524 65.457,62.490 65.697,61.456 C65.005,61.415 64.312,61.375 63.620,61.334 ZM78.118,61.334 C77.772,61.375 77.426,61.415 77.080,61.456 C77.080,61.469 77.080,61.483 77.080,61.496 C77.333,62.543 77.586,63.591 77.839,64.639 C77.879,65.028 77.919,65.418 77.959,65.807 C78.651,66.479 79.343,67.150 80.036,67.822 C80.062,67.809 80.089,67.796 80.115,67.782 C80.622,66.551 83.054,63.463 81.034,61.939 C80.311,61.394 79.209,61.429 78.118,61.334 ZM67.494,61.899 C67.321,62.624 67.148,63.349 66.975,64.075 C66.988,64.075 67.002,64.075 67.015,64.075 C67.055,64.035 67.095,63.994 67.135,63.954 C67.854,63.483 68.573,63.014 69.292,62.543 C68.851,62.233 68.080,62.009 67.494,61.899 ZM75.203,61.899 C74.630,62.114 74.058,62.329 73.485,62.543 C73.485,62.557 73.485,62.570 73.485,62.584 C74.271,63.081 75.056,63.577 75.842,64.075 C75.774,63.526 75.577,62.189 75.203,61.899 ZM71.368,63.511 C69.817,64.685 67.856,65.340 66.576,66.774 C66.500,67.873 66.149,71.103 66.695,72.012 C68.253,72.741 69.617,74.645 71.448,75.114 C72.101,74.739 72.753,74.362 73.406,73.986 C74.351,73.288 75.296,72.590 76.241,71.891 C76.252,70.806 76.624,67.650 76.241,66.774 C76.032,66.295 72.088,63.755 71.368,63.511 ZM71.129,66.372 C75.099,66.283 75.311,71.588 71.808,72.254 C69.780,72.639 68.005,70.511 68.573,68.507 C68.962,67.134 69.854,66.886 71.129,66.372 ZM71.249,68.225 C69.828,68.853 70.248,70.712 71.608,70.400 C72.831,70.121 72.713,68.194 71.249,68.225 ZM64.579,68.588 C64.366,68.830 64.153,69.070 63.940,69.313 C64.006,69.380 64.073,69.447 64.139,69.514 C64.299,69.689 64.459,69.864 64.619,70.038 C64.605,69.554 64.592,69.070 64.579,68.588 ZM78.158,68.588 C78.172,69.070 78.185,69.554 78.198,70.038 C78.291,69.957 78.385,69.876 78.478,69.797 C78.598,69.648 78.718,69.500 78.837,69.353 C78.715,69.049 78.406,68.771 78.158,68.588 ZM60.664,71.206 C60.363,71.370 60.070,71.476 59.906,71.771 C59.490,72.517 60.159,73.588 61.064,73.382 C62.311,73.097 62.187,71.141 60.664,71.206 ZM81.913,71.206 C80.578,71.870 80.937,73.692 82.312,73.382 C83.549,73.103 83.415,71.157 81.913,71.206 ZM81.753,75.195 C79.973,75.127 79.112,73.581 79.237,71.649 C78.811,72.039 78.385,72.428 77.959,72.817 C77.919,73.208 77.879,73.597 77.839,73.986 C77.629,75.053 77.435,76.179 77.080,77.129 C77.080,77.142 77.080,77.156 77.080,77.170 C79.174,77.413 81.710,77.381 81.753,75.195 ZM63.740,71.851 C64.248,73.648 62.469,75.163 61.024,75.236 C61.596,77.370 63.215,77.448 65.697,77.170 C65.697,77.129 65.697,77.089 65.697,77.049 C65.168,75.404 65.231,72.557 63.740,71.851 ZM66.975,74.551 C67.148,75.275 67.321,76.001 67.494,76.726 C67.534,76.726 67.574,76.726 67.614,76.726 C68.187,76.525 68.759,76.324 69.332,76.122 C68.546,75.598 67.760,75.074 66.975,74.551 ZM75.762,74.551 C75.003,75.074 74.244,75.598 73.485,76.122 C73.512,76.122 73.539,76.122 73.565,76.122 C74.017,76.404 74.700,76.625 75.283,76.726 C75.403,76.389 75.918,74.769 75.762,74.551 ZM71.368,77.210 C70.526,77.741 69.279,78.249 68.213,78.459 C68.348,79.117 68.862,79.679 69.212,80.151 C71.197,82.828 73.810,81.018 74.604,78.459 C73.406,78.260 72.431,77.572 71.368,77.210 ZM64.738,92.036 C64.738,93.393 64.738,94.750 64.738,96.106 C69.238,96.106 73.739,96.106 78.238,96.106 C78.238,94.750 78.238,93.393 78.238,92.036 C73.739,92.036 69.238,92.036 64.738,92.036 Z"/>
</svg>