<svg 
 xmlns="http://www.w3.org/2000/svg"
 xmlns:xlink="http://www.w3.org/1999/xlink"
 width="145px" height="146px">
<defs>
<linearGradient id="PSgrad_0" x1="0%" x2="27.564%" y1="96.126%" y2="0%">
  <stop offset="0%" stop-color="rgb(34,159,255)" stop-opacity="1" />
  <stop offset="100%" stop-color="rgb(69,226,0)" stop-opacity="1" />
</linearGradient>
<filter filterUnits="userSpaceOnUse" id="Filter_0" x="0px" y="0px" width="144px" height="145px"  >
    <feOffset in="SourceAlpha" dx="0" dy="0" />
    <feGaussianBlur result="blurOut" stdDeviation="4.472" />
    <feFlood flood-color="rgb(0, 62, 139)" result="floodOut" />
    <feComposite operator="atop" in="floodOut" in2="blurOut" />
    <feComponentTransfer><feFuncA type="linear" slope="0.1"/></feComponentTransfer>
    <feMerge>
    <feMergeNode/>
    <feMergeNode in="SourceGraphic"/>
  </feMerge>
</filter>

</defs>
<path fill-rule="evenodd"  stroke="rgb(223, 236, 240)" stroke-width="2px" stroke-linecap="butt" stroke-linejoin="miter" fill="none"
 d="M72.484,4.000 C110.877,4.000 142.000,35.074 142.000,73.406 C142.000,111.738 110.877,142.812 72.484,142.812 C34.092,142.812 2.969,111.738 2.969,73.406 C2.969,35.074 34.092,4.000 72.484,4.000 Z"/>
<g filter="url(#Filter_0)">
<path fill-rule="evenodd"  fill="rgb(255, 255, 255)"
 d="M71.500,19.812 C100.495,19.812 124.000,43.317 124.000,72.312 C124.000,101.307 100.495,124.812 71.500,124.812 C42.505,124.812 19.000,101.307 19.000,72.312 C19.000,43.317 42.505,19.812 71.500,19.812 Z"/>
</g>
<path fill-rule="evenodd"  fill="url(#PSgrad_0)"
 d="M70.654,47.054 C71.563,47.037 74.217,46.857 74.710,47.226 C75.172,47.572 75.128,51.585 74.675,51.903 C74.395,52.101 71.209,52.186 70.619,52.042 C70.382,51.985 70.109,51.769 70.024,51.557 C70.024,50.218 70.024,48.878 70.024,47.538 C70.138,47.270 70.400,47.190 70.654,47.054 ZM71.668,48.717 C71.668,49.271 71.668,49.826 71.668,50.379 C72.216,50.379 72.764,50.379 73.312,50.379 C73.312,49.826 73.312,49.271 73.312,48.717 C72.764,48.717 72.216,48.717 71.668,48.717 ZM67.961,49.132 C68.031,49.144 68.101,49.155 68.171,49.166 C68.264,49.698 68.357,50.229 68.450,50.760 C64.065,51.336 58.466,54.662 56.350,57.481 C56.280,57.412 56.210,57.343 56.140,57.274 C55.791,56.973 55.441,56.673 55.091,56.373 C55.208,56.257 55.324,56.142 55.441,56.027 C55.825,55.265 56.909,54.569 57.574,54.052 C59.737,52.370 62.024,51.040 64.848,49.964 C65.886,49.687 66.923,49.409 67.961,49.132 ZM76.844,49.132 C78.203,49.211 79.584,49.776 80.691,50.206 C84.110,51.533 87.983,53.801 89.993,56.477 C89.562,56.846 89.130,57.216 88.699,57.585 C88.300,56.780 86.844,55.718 86.111,55.161 C83.536,53.203 80.449,51.342 76.529,50.760 C76.634,50.218 76.739,49.675 76.844,49.132 ZM71.773,55.368 C80.092,55.224 85.566,59.898 87.965,65.623 C89.539,69.380 89.628,74.464 88.035,78.303 C86.085,83.000 82.323,86.381 77.228,87.969 C75.986,88.355 74.664,88.380 73.207,88.627 C70.754,89.043 67.356,87.897 65.828,87.241 C61.216,85.263 57.969,81.725 56.420,76.709 C55.832,74.803 55.405,71.843 55.895,69.434 C56.117,68.347 56.323,67.273 56.700,66.316 C58.586,61.521 61.936,58.211 66.772,56.338 C67.821,55.932 68.986,55.744 70.199,55.507 C70.724,55.460 71.248,55.414 71.773,55.368 ZM71.633,62.020 C71.633,60.391 71.633,58.763 71.633,57.135 C69.564,57.885 67.725,59.732 67.052,61.812 C68.578,61.881 70.106,61.951 71.633,62.020 ZM73.347,62.020 C74.874,61.951 76.401,61.881 77.928,61.812 C77.928,61.800 77.928,61.789 77.928,61.777 C76.901,59.650 75.677,57.990 73.347,57.135 C73.347,58.763 73.347,60.391 73.347,62.020 ZM51.349,57.863 C52.169,57.847 54.848,57.658 55.336,57.966 C55.835,58.282 55.961,62.283 55.441,62.678 C55.154,62.896 51.953,63.014 51.314,62.851 C51.131,62.805 50.879,62.616 50.790,62.470 C50.614,62.184 50.574,58.665 50.755,58.313 C50.873,58.082 51.125,57.996 51.349,57.863 ZM67.436,57.897 C66.982,58.082 66.527,58.267 66.072,58.452 C64.832,58.992 62.880,60.177 62.121,61.188 C63.170,61.327 64.219,61.465 65.268,61.604 C65.553,60.178 66.773,58.931 67.541,57.897 C67.506,57.897 67.471,57.897 67.436,57.897 ZM77.438,57.897 C78.287,59.085 79.125,60.182 79.746,61.639 C80.784,61.489 81.821,61.339 82.859,61.188 C82.742,61.062 82.626,60.934 82.509,60.807 C82.101,60.484 81.693,60.161 81.285,59.837 C80.250,59.108 78.841,58.163 77.438,57.897 ZM90.763,58.694 C91.614,58.678 94.312,58.498 94.784,58.832 C95.347,59.231 95.313,63.212 94.749,63.579 C94.489,63.748 91.248,63.815 90.728,63.683 C90.481,63.620 90.221,63.387 90.133,63.164 C90.133,61.847 90.133,60.530 90.133,59.214 C90.241,58.930 90.511,58.842 90.763,58.694 ZM52.363,59.526 C52.363,60.080 52.363,60.634 52.363,61.188 C52.923,61.188 53.482,61.188 54.042,61.188 C54.042,60.634 54.042,60.080 54.042,59.526 C53.482,59.526 52.923,59.526 52.363,59.526 ZM91.777,60.357 C91.777,60.911 91.777,61.466 91.777,62.020 C92.336,62.020 92.896,62.020 93.455,62.020 C93.455,61.466 93.455,60.911 93.455,60.357 C92.896,60.357 92.336,60.357 91.777,60.357 ZM63.275,71.166 C63.292,69.018 63.559,66.955 64.044,65.172 C64.231,64.526 64.417,63.880 64.603,63.232 C63.310,63.036 62.016,62.840 60.722,62.644 C58.989,65.349 57.857,67.028 57.434,71.166 C59.381,71.166 61.328,71.166 63.275,71.166 ZM81.705,71.166 C83.651,71.166 85.599,71.166 87.545,71.166 C87.545,71.132 87.545,71.096 87.545,71.062 C87.440,70.300 87.335,69.538 87.230,68.776 C86.730,66.816 85.534,63.719 84.223,62.644 C82.941,62.840 81.658,63.036 80.376,63.232 C80.597,64.029 80.819,64.826 81.040,65.623 C81.471,67.297 81.653,69.183 81.705,71.166 ZM71.633,71.166 C71.633,68.672 71.633,66.177 71.633,63.683 C69.873,63.602 68.112,63.521 66.352,63.440 C66.059,64.611 65.657,65.811 65.373,67.078 C65.077,68.396 65.140,69.784 64.953,71.166 C67.180,71.166 69.407,71.166 71.633,71.166 ZM73.347,63.683 C73.347,66.177 73.347,68.672 73.347,71.166 C75.573,71.166 77.800,71.166 80.026,71.166 C79.709,68.356 79.602,65.601 78.592,63.406 C77.284,63.745 74.875,63.680 73.347,63.683 ZM50.335,64.237 C50.871,64.422 51.408,64.607 51.944,64.791 C50.371,68.755 50.322,75.242 51.944,79.204 C51.683,79.281 50.417,79.788 50.335,79.688 C49.888,78.934 49.797,77.883 49.566,76.952 C48.918,74.351 48.772,70.488 49.391,67.702 C49.659,66.492 50.034,65.352 50.335,64.237 ZM95.064,65.969 C95.443,66.147 95.650,68.420 95.764,69.052 C96.455,72.921 95.459,76.804 94.644,79.758 C94.108,79.573 93.572,79.389 93.036,79.204 C93.880,77.091 94.735,73.188 94.225,70.127 C94.007,68.820 93.743,67.576 93.560,66.385 C94.061,66.247 94.563,66.108 95.064,65.969 ZM63.275,72.829 C61.328,72.829 59.381,72.829 57.434,72.829 C57.652,75.902 58.592,78.238 59.917,80.208 C60.178,80.595 60.400,81.061 60.757,81.352 C62.039,81.155 63.321,80.959 64.603,80.763 C64.382,79.966 64.160,79.169 63.939,78.372 C63.508,76.698 63.326,74.812 63.275,72.829 ZM71.633,80.312 C71.633,77.818 71.633,75.323 71.633,72.829 C69.407,72.829 67.180,72.829 64.953,72.829 C65.271,75.639 65.377,78.394 66.387,80.589 C67.696,80.250 70.104,80.315 71.633,80.312 ZM73.347,72.829 C73.347,75.323 73.347,77.818 73.347,80.312 C75.107,80.393 76.867,80.474 78.627,80.555 C78.920,79.385 79.322,78.184 79.606,76.917 C79.902,75.600 79.839,74.211 80.026,72.829 C77.800,72.829 75.573,72.829 73.347,72.829 ZM81.705,72.829 C81.667,74.984 81.422,77.031 80.935,78.823 C80.749,79.469 80.562,80.116 80.376,80.763 C81.670,80.959 82.964,81.155 84.258,81.352 C85.990,78.646 87.122,76.967 87.545,72.829 C85.599,72.829 83.651,72.829 81.705,72.829 ZM51.314,81.144 C52.222,81.127 54.958,80.946 55.441,81.316 C55.958,81.715 55.837,85.715 55.336,86.029 C55.053,86.205 51.889,86.265 51.349,86.133 C51.128,86.078 50.847,85.866 50.755,85.682 C50.581,85.338 50.589,81.951 50.755,81.594 C50.861,81.365 51.104,81.275 51.314,81.144 ZM89.888,81.144 C90.817,81.127 93.596,80.950 94.050,81.352 C94.517,81.765 94.394,85.679 93.945,85.994 C93.663,86.192 90.515,86.275 89.923,86.133 C89.674,86.072 89.377,85.836 89.294,85.613 C89.294,84.297 89.294,82.980 89.294,81.663 C89.398,81.383 89.648,81.293 89.888,81.144 ZM71.633,81.976 C70.572,82.021 69.511,82.067 68.450,82.114 C67.984,82.149 67.518,82.183 67.052,82.218 C68.078,84.345 69.303,86.005 71.633,86.860 C71.633,85.232 71.633,83.604 71.633,81.976 ZM73.347,81.976 C73.347,83.604 73.347,85.232 73.347,86.860 C75.682,86.012 76.895,84.339 77.928,82.218 C77.928,82.206 77.928,82.194 77.928,82.183 C76.401,82.114 74.874,82.045 73.347,81.976 ZM65.198,82.357 C64.172,82.507 63.146,82.657 62.121,82.807 C63.026,83.972 65.848,85.766 67.541,86.098 C67.495,86.052 67.448,86.005 67.401,85.960 C66.947,85.313 66.492,84.665 66.037,84.019 C65.758,83.465 65.478,82.910 65.198,82.357 ZM79.746,82.357 C79.167,83.815 78.298,84.937 77.438,86.098 C78.908,85.856 82.116,83.800 82.859,82.807 C81.821,82.657 80.784,82.507 79.746,82.357 ZM52.363,82.807 C52.363,83.360 52.363,83.915 52.363,84.469 C52.923,84.469 53.482,84.469 54.042,84.469 C54.042,83.915 54.042,83.360 54.042,82.807 C53.482,82.807 52.923,82.807 52.363,82.807 ZM90.937,82.807 C90.937,83.360 90.937,83.915 90.937,84.469 C91.497,84.469 92.057,84.469 92.616,84.469 C92.616,83.915 92.616,83.360 92.616,82.807 C92.057,82.807 91.497,82.807 90.937,82.807 ZM87.965,87.206 C88.361,87.599 88.757,87.992 89.154,88.384 C88.723,88.939 88.100,89.406 87.545,89.839 C85.279,91.607 82.966,93.009 79.921,94.066 C79.245,94.301 78.476,94.603 77.683,94.690 C77.567,94.147 77.450,93.604 77.333,93.062 C78.164,92.981 79.015,92.635 79.711,92.369 C82.388,91.344 84.429,90.148 86.461,88.558 C86.972,88.157 87.577,87.725 87.965,87.206 ZM57.119,87.345 C57.807,87.946 58.495,88.546 59.183,89.146 C61.640,90.988 64.756,92.697 68.450,93.234 C68.346,93.778 68.241,94.320 68.136,94.863 C68.124,94.863 68.112,94.863 68.101,94.863 C67.471,94.713 66.842,94.563 66.212,94.413 C63.011,93.472 60.445,92.184 58.099,90.428 C57.388,89.805 56.676,89.181 55.965,88.558 C56.222,88.303 56.478,88.049 56.735,87.795 C56.863,87.645 56.991,87.495 57.119,87.345 ZM70.619,91.953 C71.473,91.937 74.202,91.756 74.675,92.091 C75.126,92.411 75.174,96.425 74.710,96.768 C74.424,96.981 71.059,97.106 70.514,96.907 C70.338,96.843 70.095,96.626 70.024,96.457 C70.024,95.117 70.024,93.778 70.024,92.438 C70.132,92.174 70.382,92.094 70.619,91.953 ZM71.668,93.616 C71.668,94.170 71.668,94.725 71.668,95.279 C72.216,95.279 72.764,95.279 73.312,95.279 C73.312,94.725 73.312,94.170 73.312,93.616 C72.764,93.616 72.216,93.616 71.668,93.616 Z"/>
</svg>