<svg 
 xmlns="http://www.w3.org/2000/svg"
 xmlns:xlink="http://www.w3.org/1999/xlink"
 width="50px" height="50px">
<defs>
<linearGradient id="PSgrad_0" x1="0%" x2="27.564%" y1="96.126%" y2="0%">
  <stop offset="0%" stop-color="rgb(34,159,255)" stop-opacity="1" />
  <stop offset="100%" stop-color="rgb(69,226,0)" stop-opacity="1" />
</linearGradient>

</defs>
<path fill-rule="evenodd"  fill="url(#PSgrad_0)"
 d="M44.009,-0.005 C44.977,0.013 45.067,0.805 45.394,1.449 C46.179,2.994 46.964,4.540 47.749,6.085 C48.026,6.629 48.715,7.682 47.991,8.196 C47.556,8.505 46.951,8.251 46.744,7.919 C45.937,6.282 45.128,4.644 44.320,3.005 C44.309,3.005 44.297,3.005 44.286,3.005 C44.286,3.029 44.286,3.052 44.286,3.075 C43.662,4.828 43.039,6.582 42.416,8.334 C41.261,11.234 39.866,13.936 38.295,16.433 C32.890,25.019 25.015,31.087 14.920,35.014 C12.606,35.915 10.065,36.411 7.440,36.987 C6.113,37.160 4.785,37.333 3.458,37.506 C3.435,37.496 3.411,37.483 3.388,37.471 C3.342,36.941 3.296,36.411 3.250,35.880 C3.261,35.857 3.273,35.834 3.284,35.810 C4.681,35.824 6.144,35.529 7.371,35.257 C11.501,34.340 14.598,33.401 18.002,31.901 C27.306,27.800 34.168,20.777 38.884,12.072 C40.468,9.146 41.368,5.769 42.693,2.521 C41.192,3.271 39.691,4.021 38.191,4.770 C37.638,5.052 36.842,5.093 36.667,4.390 C36.419,3.394 37.731,3.136 38.260,2.867 C40.176,1.910 42.093,0.953 44.009,-0.005 ZM4.150,5.013 C7.763,5.013 11.377,5.013 14.989,5.013 C14.989,5.566 14.989,6.120 14.989,6.674 C11.377,6.674 7.763,6.674 4.150,6.674 C4.150,6.120 4.150,5.566 4.150,5.013 ZM4.150,8.334 C7.763,8.334 11.377,8.334 14.989,8.334 C14.989,8.888 14.989,9.443 14.989,9.995 C11.377,9.995 7.763,9.995 4.150,9.995 C4.150,9.443 4.150,8.888 4.150,8.334 ZM11.665,11.657 C11.665,12.210 11.665,12.764 11.665,13.318 C9.160,13.318 6.655,13.318 4.150,13.318 C4.162,12.764 4.173,12.210 4.185,11.657 C6.678,11.657 9.172,11.657 11.665,11.657 ZM11.665,14.979 C11.665,15.544 11.665,16.109 11.665,16.674 C9.160,16.663 6.655,16.652 4.150,16.640 C4.162,16.086 4.173,15.533 4.185,14.979 C6.678,14.979 9.172,14.979 11.665,14.979 ZM40.615,15.844 C42.242,15.844 43.870,15.844 45.498,15.844 C46.258,15.844 47.053,15.743 47.368,16.190 C47.676,16.627 47.506,20.511 47.506,21.450 C47.506,26.213 47.506,30.978 47.506,35.742 C47.506,38.463 47.506,41.186 47.506,43.908 C47.506,44.959 47.736,46.388 46.918,46.641 C45.221,46.653 43.524,46.665 41.827,46.677 C41.129,46.677 40.413,46.742 40.130,46.330 C39.809,45.862 39.992,41.748 39.992,40.760 C39.992,35.742 39.992,30.723 39.992,25.706 C39.992,23.364 39.992,21.022 39.992,18.682 C39.992,17.321 39.735,16.410 40.615,15.844 ZM41.654,17.505 C41.654,26.662 41.654,35.823 41.654,44.981 C43.039,44.981 44.424,44.981 45.809,44.981 C45.809,35.823 45.809,26.662 45.809,17.505 C44.424,17.505 43.039,17.505 41.654,17.505 ZM31.438,27.505 C33.100,27.505 34.763,27.505 36.425,27.505 C37.269,27.505 38.071,27.404 38.295,28.025 C38.306,32.800 38.318,37.576 38.330,42.350 C38.330,43.595 38.720,46.353 37.741,46.641 C36.021,46.653 34.301,46.665 32.581,46.677 C31.797,46.677 31.134,46.718 30.884,46.192 C30.626,45.649 30.815,43.829 30.815,43.077 C30.815,40.552 30.815,38.025 30.815,35.499 C30.826,33.019 30.838,30.539 30.850,28.059 C30.947,27.772 31.202,27.659 31.438,27.505 ZM32.512,29.166 C32.512,34.437 32.512,39.710 32.512,44.981 C33.897,44.981 35.282,44.981 36.667,44.981 C36.667,39.710 36.667,34.437 36.667,29.166 C35.282,29.166 33.897,29.166 32.512,29.166 ZM22.365,33.319 C23.993,33.319 25.621,33.319 27.248,33.319 C28.096,33.319 28.881,33.228 29.118,33.838 C29.130,37.125 29.141,40.413 29.153,43.700 C29.153,44.760 29.413,46.370 28.599,46.641 C26.890,46.653 25.182,46.665 23.473,46.677 C22.743,46.677 22.065,46.732 21.777,46.296 C21.548,45.949 21.673,45.025 21.673,44.496 C21.673,42.974 21.673,41.450 21.673,39.929 C21.684,37.899 21.696,35.868 21.707,33.838 C21.827,33.536 22.087,33.470 22.365,33.319 ZM23.335,35.014 C23.335,38.336 23.335,41.659 23.335,44.981 C24.720,44.981 26.105,44.981 27.490,44.981 C27.490,41.659 27.490,38.336 27.490,35.014 C26.105,35.014 24.720,35.014 23.335,35.014 ZM13.119,37.506 C14.712,37.506 16.305,37.506 17.898,37.506 C18.543,37.506 19.424,37.401 19.768,37.714 C20.129,38.042 20.010,39.013 20.010,39.686 C20.010,41.335 20.010,42.985 20.010,44.634 C20.010,45.309 20.111,46.165 19.733,46.469 C19.251,46.856 17.855,46.677 17.032,46.677 C15.971,46.677 13.027,46.906 12.634,46.330 C12.349,45.913 12.496,44.803 12.496,44.150 C12.507,42.109 12.519,40.067 12.531,38.025 C12.634,37.744 12.882,37.658 13.119,37.506 ZM14.158,39.167 C14.158,41.105 14.158,43.043 14.158,44.981 C15.543,44.981 16.929,44.981 18.314,44.981 C18.314,43.043 18.314,41.105 18.314,39.167 C16.929,39.167 15.543,39.167 14.158,39.167 ZM3.977,39.998 C5.604,39.998 7.232,39.998 8.860,39.998 C9.527,39.997 10.368,39.894 10.661,40.275 C11.020,40.743 10.834,42.956 10.834,43.804 C10.834,44.525 11.019,45.863 10.695,46.330 C10.301,46.901 8.618,46.677 7.682,46.677 C6.721,46.677 3.918,46.879 3.527,46.400 C3.232,46.037 3.319,45.215 3.319,44.565 C3.331,43.227 3.342,41.889 3.354,40.552 C3.458,40.248 3.720,40.154 3.977,39.998 ZM5.016,41.658 C5.016,42.765 5.016,43.873 5.016,44.981 C6.401,44.981 7.786,44.981 9.171,44.981 C9.171,43.873 9.171,42.765 9.171,41.658 C7.786,41.658 6.401,41.658 5.016,41.658 ZM-0.005,48.337 C16.661,48.337 33.333,48.337 50.000,48.337 C50.000,48.891 50.000,49.445 50.000,49.998 C33.333,49.998 16.661,49.998 -0.005,49.998 C-0.005,49.445 -0.005,48.891 -0.005,48.337 Z"/>
</svg>