<svg 
 xmlns="http://www.w3.org/2000/svg"
 xmlns:xlink="http://www.w3.org/1999/xlink"
 width="50px" height="49px">
<defs>
<linearGradient id="PSgrad_0" x1="0%" x2="27.564%" y1="96.126%" y2="0%">
  <stop offset="0%" stop-color="rgb(34,159,255)" stop-opacity="1" />
  <stop offset="100%" stop-color="rgb(69,226,0)" stop-opacity="1" />
</linearGradient>

</defs>
<path fill-rule="evenodd"  fill="url(#PSgrad_0)"
 d="M50.003,20.529 C50.003,24.378 50.003,28.228 50.003,32.077 C45.165,34.457 40.325,36.838 35.486,39.218 C35.519,40.755 34.555,41.805 33.078,41.849 C32.953,43.445 32.055,43.879 30.636,44.240 C30.642,45.621 29.576,46.534 28.228,46.598 C28.204,48.095 26.757,49.421 24.948,48.887 C24.209,48.669 23.855,48.109 23.272,47.760 C21.548,48.690 19.386,47.755 19.364,45.778 C18.008,45.783 16.952,44.747 16.956,43.420 C15.537,43.401 14.619,42.382 14.513,41.063 C12.893,40.877 12.457,40.053 12.071,38.638 C11.268,38.181 10.465,37.725 9.663,37.270 C9.604,37.475 9.546,37.680 9.488,37.885 C8.233,38.230 7.060,37.619 6.243,37.338 C4.161,36.666 2.078,35.995 -0.004,35.323 C-0.004,29.868 -0.004,24.412 -0.004,18.957 C0.892,18.957 1.788,18.957 2.683,18.957 C3.998,19.720 5.312,20.483 6.627,21.247 C7.371,21.064 8.116,20.882 8.860,20.700 C8.860,20.574 8.860,20.449 8.860,20.324 C7.212,19.212 6.452,17.657 6.452,14.891 C6.452,14.028 6.456,13.259 6.661,12.602 C7.367,10.345 9.316,8.655 12.350,8.673 C12.350,8.661 12.350,8.651 12.350,8.639 C12.071,7.967 11.791,7.295 11.512,6.623 C12.594,5.575 13.676,4.527 14.758,3.479 C14.970,3.272 15.604,2.449 15.839,2.557 C16.654,3.070 17.468,3.582 18.282,4.094 C19.236,3.640 20.178,3.166 21.318,2.865 C21.516,1.908 21.714,0.950 21.911,-0.006 C23.970,-0.006 26.029,-0.006 28.088,-0.006 C28.124,0.439 28.535,2.656 28.751,2.865 C29.170,3.002 29.589,3.138 30.008,3.275 C30.577,3.548 31.147,3.822 31.718,4.094 C32.555,3.559 33.393,3.024 34.230,2.489 C35.649,3.878 37.069,5.268 38.487,6.657 C38.208,7.329 37.929,8.001 37.650,8.673 C41.398,8.631 43.548,11.293 43.548,14.994 C43.548,15.822 43.569,16.607 43.373,17.248 C43.103,18.133 42.640,18.864 42.117,19.504 C41.791,19.788 41.465,20.073 41.140,20.358 C41.132,20.523 41.131,20.623 41.209,20.700 C42.326,20.973 43.443,21.247 44.560,21.519 C44.897,21.644 45.234,21.770 45.572,21.895 C46.432,21.440 47.293,20.985 48.154,20.529 C48.770,20.529 49.387,20.529 50.003,20.529 ZM23.238,1.566 C23.051,2.432 22.865,3.297 22.679,4.163 C20.927,4.526 19.622,5.221 18.282,5.939 C17.503,5.473 16.723,5.005 15.944,4.539 C15.107,5.370 14.269,6.202 13.431,7.033 C13.802,8.834 14.825,9.436 16.084,10.347 C16.107,10.335 16.130,10.324 16.153,10.313 C16.357,9.823 16.781,9.468 17.096,9.083 C19.035,6.705 23.434,4.560 27.914,5.906 C29.887,6.499 31.748,7.602 32.904,9.014 C33.230,9.448 33.555,9.880 33.881,10.313 C34.207,10.050 34.533,9.789 34.858,9.527 C35.137,9.391 35.417,9.254 35.696,9.117 C35.987,8.411 36.277,7.704 36.568,6.999 C35.719,6.179 34.870,5.358 34.021,4.539 C33.201,4.863 32.575,5.759 31.683,5.939 C30.580,5.036 28.929,4.545 27.320,4.163 C27.134,3.297 26.948,2.432 26.762,1.566 C25.587,1.566 24.412,1.566 23.238,1.566 ZM24.529,7.102 C23.747,7.393 22.865,7.282 22.156,7.545 C19.896,8.381 18.203,9.785 17.131,11.782 C17.262,12.338 17.561,12.864 17.689,13.490 C18.330,16.629 17.065,19.235 15.316,20.324 C15.316,20.449 15.316,20.574 15.316,20.700 C16.363,20.962 17.410,21.223 18.457,21.485 C19.562,21.223 20.667,20.962 21.772,20.700 C21.772,20.574 21.772,20.449 21.772,20.324 C20.114,19.212 19.364,17.671 19.364,14.891 C19.364,14.086 19.345,13.324 19.538,12.705 C20.052,11.060 21.142,9.835 22.679,9.185 C23.333,8.909 24.320,8.503 25.366,8.673 C28.683,9.210 30.635,11.142 30.636,14.925 C30.636,15.843 30.646,16.696 30.426,17.385 C29.919,18.974 29.114,19.295 28.228,20.358 C28.220,20.523 28.219,20.623 28.298,20.700 C29.379,20.962 30.461,21.223 31.543,21.485 C32.590,21.223 33.637,20.962 34.684,20.700 C34.684,20.585 34.684,20.472 34.684,20.358 C34.660,20.324 34.637,20.290 34.614,20.255 C32.363,19.279 31.474,14.494 32.834,11.782 C32.685,11.239 32.239,10.814 31.927,10.416 C30.379,8.439 28.097,7.097 24.529,7.102 ZM11.547,10.279 C11.097,10.468 10.615,10.469 10.221,10.689 C8.700,11.538 7.614,13.329 8.057,16.053 C8.138,16.548 8.227,17.015 8.406,17.420 C8.931,18.605 9.719,18.695 10.500,19.470 C10.509,19.891 10.597,21.747 10.430,21.930 C9.849,22.077 9.267,22.226 8.685,22.373 C8.697,22.397 8.709,22.420 8.720,22.442 C10.116,23.239 11.512,24.036 12.908,24.834 C12.918,25.355 12.957,26.060 12.803,26.474 C13.641,26.303 14.478,26.132 15.316,25.961 C15.280,24.308 15.734,23.529 16.433,22.646 C15.525,22.408 14.618,22.168 13.711,21.930 C13.711,21.087 13.711,20.244 13.711,19.401 C15.401,18.857 16.119,17.253 16.119,14.994 C16.119,14.350 16.133,13.749 15.979,13.251 C15.409,11.406 14.064,10.252 11.547,10.279 ZM24.459,10.279 C24.087,10.381 23.714,10.484 23.342,10.586 C22.434,10.970 21.626,11.800 21.248,12.705 C20.999,13.302 20.969,14.005 20.969,14.857 C20.969,17.202 21.643,18.815 23.377,19.401 C23.366,20.255 23.354,21.110 23.342,21.963 C22.598,22.146 21.853,22.327 21.109,22.511 C19.424,22.967 17.758,22.990 17.131,24.492 C17.019,24.759 16.855,25.220 16.956,25.586 C16.968,25.586 16.979,25.586 16.991,25.586 C20.633,24.733 23.309,26.042 26.099,26.849 C26.390,26.873 26.681,26.895 26.972,26.918 C27.576,27.077 28.181,27.237 28.786,27.396 C29.763,27.687 31.980,28.636 33.044,28.353 C33.055,28.330 33.067,28.308 33.078,28.284 C33.083,26.945 33.292,25.061 32.764,24.185 C31.791,22.569 28.570,22.581 26.622,21.930 C26.622,21.087 26.622,20.244 26.622,19.401 C28.527,18.759 29.711,15.873 28.856,13.149 C28.296,11.364 26.909,10.253 24.459,10.279 ZM37.371,10.279 C37.115,10.335 36.859,10.393 36.603,10.450 C35.586,10.799 34.645,11.597 34.230,12.534 C33.943,13.182 33.881,13.894 33.881,14.857 C33.881,17.196 34.542,18.838 36.289,19.401 C36.277,20.255 36.266,21.110 36.254,21.963 C35.358,22.192 34.463,22.420 33.567,22.646 C34.101,23.350 34.505,23.941 34.684,25.039 C34.695,25.847 34.707,26.656 34.719,27.464 C37.650,25.961 40.582,24.458 43.513,22.955 C42.175,22.613 40.837,22.271 39.499,21.930 C39.499,21.098 39.499,20.267 39.499,19.435 C41.118,18.611 41.942,17.471 41.942,15.028 C41.942,14.186 41.904,13.475 41.663,12.875 C41.013,11.256 39.732,10.256 37.371,10.279 ZM1.601,20.529 C1.601,25.072 1.601,29.618 1.601,34.161 C2.765,34.538 3.928,34.914 5.091,35.289 C6.057,31.474 7.022,27.658 7.988,23.843 C6.580,23.046 5.172,22.248 3.765,21.451 C3.102,21.063 2.641,20.539 1.601,20.529 ZM48.328,22.237 C43.327,24.822 38.324,27.407 33.323,29.993 C32.446,30.244 31.501,29.816 30.950,29.651 C29.391,29.241 27.832,28.832 26.274,28.422 C25.391,28.269 24.628,28.709 24.110,28.968 C22.714,29.640 21.318,30.312 19.922,30.984 C19.585,31.187 19.209,31.654 19.364,32.317 C19.532,33.032 20.396,33.377 21.109,32.965 C22.408,32.215 24.555,30.261 26.657,30.915 C27.909,31.305 28.628,32.409 29.554,33.136 C31.299,34.674 33.044,36.211 34.788,37.749 C39.325,35.517 43.862,33.284 48.398,31.052 C48.398,28.876 48.398,26.701 48.398,24.526 C48.398,24.105 48.502,22.433 48.328,22.237 ZM9.453,24.697 C8.790,27.305 8.127,29.913 7.464,32.521 C7.282,33.170 6.564,35.286 6.661,35.835 C7.196,35.995 7.732,36.154 8.267,36.313 C9.011,33.729 9.756,31.143 10.500,28.558 C10.778,27.663 11.236,26.736 11.268,25.688 C10.663,25.358 10.058,25.027 9.453,24.697 ZM23.377,41.849 C24.241,41.904 24.901,42.288 25.296,42.806 C25.401,42.977 25.506,43.147 25.610,43.318 C26.215,43.808 26.820,44.297 27.425,44.787 C27.938,45.132 28.796,45.019 28.996,44.479 C29.225,43.858 28.703,43.549 28.402,43.318 C27.460,42.532 26.518,41.746 25.576,40.960 C25.311,40.739 24.352,40.214 24.633,39.935 C24.924,39.582 25.215,39.229 25.506,38.876 C26.855,39.981 28.205,41.086 29.554,42.191 C29.923,42.473 30.802,42.949 31.264,42.362 C31.766,41.722 31.126,41.120 30.740,40.824 C29.461,39.787 28.181,38.751 26.902,37.714 C27.251,37.316 27.600,36.917 27.949,36.518 C29.426,37.725 30.903,38.933 32.380,40.140 C33.010,40.526 33.780,40.103 33.881,39.525 C33.995,38.874 32.561,37.885 32.171,37.577 C30.775,36.348 29.379,35.117 27.984,33.888 C27.348,33.387 26.870,32.561 25.925,32.384 C25.171,32.244 24.717,32.693 24.319,32.931 C23.233,33.582 21.171,35.266 19.434,34.571 C17.905,33.960 17.095,31.807 18.317,30.266 C19.332,28.987 21.854,28.612 23.203,27.601 C23.203,27.589 23.203,27.578 23.203,27.567 C22.178,27.395 21.276,27.027 20.097,26.849 C18.940,26.675 17.837,27.020 16.991,27.225 C15.432,27.556 13.873,27.885 12.315,28.216 C11.594,30.710 10.872,33.205 10.151,35.699 C10.689,35.882 12.327,37.167 12.699,37.031 C13.024,36.701 13.350,36.371 13.676,36.040 C14.017,35.706 14.333,35.298 14.758,35.049 C16.053,34.291 17.655,35.032 18.212,35.938 C18.423,36.280 18.441,36.687 18.561,37.134 C19.980,37.128 20.866,38.192 20.969,39.491 C22.322,39.497 23.356,40.539 23.377,41.849 ZM15.909,36.313 C15.282,36.622 12.755,38.546 14.129,39.355 C15.348,40.071 18.425,36.320 15.909,36.313 ZM18.212,38.706 C17.615,39.064 15.154,40.954 16.572,41.746 C17.719,42.386 20.979,38.616 18.212,38.706 ZM20.690,41.063 C20.099,41.395 17.581,43.282 18.980,44.104 C20.161,44.797 23.337,40.995 20.690,41.063 ZM23.168,43.420 C22.540,43.729 20.014,45.651 21.388,46.461 C22.609,47.181 25.681,43.421 23.168,43.420 ZM25.576,45.333 C25.309,45.868 24.671,46.180 24.494,46.701 C24.915,46.917 25.350,47.692 26.134,47.315 C27.281,46.765 26.095,45.684 25.576,45.333 Z"/>
</svg>