<svg 
 xmlns="http://www.w3.org/2000/svg"
 xmlns:xlink="http://www.w3.org/1999/xlink"
 width="145px" height="146px">
<defs>
<linearGradient id="PSgrad_0" x1="0%" x2="27.564%" y1="96.126%" y2="0%">
  <stop offset="0%" stop-color="rgb(34,159,255)" stop-opacity="1" />
  <stop offset="100%" stop-color="rgb(69,226,0)" stop-opacity="1" />
</linearGradient>
<filter filterUnits="userSpaceOnUse" id="Filter_0" x="0px" y="0px" width="144px" height="145px"  >
    <feOffset in="SourceAlpha" dx="0" dy="0" />
    <feGaussianBlur result="blurOut" stdDeviation="4.472" />
    <feFlood flood-color="rgb(0, 62, 139)" result="floodOut" />
    <feComposite operator="atop" in="floodOut" in2="blurOut" />
    <feComponentTransfer><feFuncA type="linear" slope="0.1"/></feComponentTransfer>
    <feMerge>
    <feMergeNode/>
    <feMergeNode in="SourceGraphic"/>
  </feMerge>
</filter>

</defs>
<path fill-rule="evenodd"  stroke="rgb(223, 236, 240)" stroke-width="2px" stroke-linecap="butt" stroke-linejoin="miter" fill="none"
 d="M72.484,3.593 C110.877,3.593 142.000,34.710 142.000,73.093 C142.000,111.477 110.877,142.593 72.484,142.593 C34.092,142.593 2.969,111.477 2.969,73.093 C2.969,34.710 34.092,3.593 72.484,3.593 Z"/>
<g filter="url(#Filter_0)">
<path fill-rule="evenodd"  fill="rgb(255, 255, 255)"
 d="M71.500,19.437 C100.495,19.437 124.000,42.970 124.000,72.000 C124.000,101.029 100.495,124.562 71.500,124.562 C42.505,124.562 19.000,101.029 19.000,72.000 C19.000,42.970 42.505,19.437 71.500,19.437 Z"/>
</g>
<path fill-rule="evenodd"  fill="url(#PSgrad_0)"
 d="M97.003,68.529 C97.003,72.379 97.003,76.229 97.003,80.077 C92.165,82.458 87.325,84.838 82.486,87.219 C82.519,88.756 81.555,89.806 80.078,89.849 C79.953,91.446 79.055,91.879 77.636,92.241 C77.642,93.621 76.576,94.534 75.228,94.599 C75.204,96.095 73.757,97.422 71.948,96.888 C71.209,96.669 70.855,96.110 70.272,95.761 C68.548,96.691 66.386,95.756 66.364,93.779 C65.008,93.784 63.952,92.748 63.956,91.421 C62.537,91.402 61.619,90.383 61.513,89.063 C59.893,88.878 59.457,88.054 59.071,86.638 C58.268,86.182 57.465,85.726 56.663,85.271 C56.604,85.476 56.546,85.681 56.488,85.886 C55.233,86.231 54.060,85.620 53.243,85.339 C51.161,84.667 49.078,83.996 46.996,83.323 C46.996,77.869 46.996,72.412 46.996,66.958 C47.892,66.958 48.788,66.958 49.683,66.958 C50.998,67.720 52.312,68.484 53.627,69.247 C54.371,69.065 55.116,68.883 55.860,68.700 C55.860,68.575 55.860,68.449 55.860,68.324 C54.212,67.213 53.452,65.658 53.452,62.892 C53.452,62.028 53.456,61.260 53.661,60.603 C54.367,58.345 56.316,56.655 59.350,56.673 C59.350,56.662 59.350,56.651 59.350,56.639 C59.071,55.967 58.791,55.296 58.512,54.624 C59.594,53.576 60.676,52.528 61.758,51.480 C61.970,51.272 62.604,50.449 62.839,50.558 C63.654,51.070 64.468,51.583 65.282,52.095 C66.236,51.640 67.178,51.166 68.318,50.865 C68.516,49.909 68.714,48.951 68.911,47.995 C70.970,47.995 73.029,47.995 75.088,47.995 C75.124,48.440 75.535,50.656 75.751,50.865 C76.170,51.002 76.589,51.139 77.008,51.275 C77.577,51.548 78.147,51.822 78.718,52.095 C79.555,51.560 80.393,51.024 81.230,50.490 C82.649,51.878 84.069,53.269 85.487,54.658 C85.208,55.329 84.929,56.002 84.650,56.673 C88.398,56.631 90.548,59.294 90.548,62.994 C90.548,63.823 90.569,64.607 90.373,65.249 C90.103,66.134 89.640,66.864 89.117,67.505 C88.791,67.789 88.465,68.074 88.140,68.359 C88.132,68.524 88.131,68.624 88.209,68.700 C89.326,68.974 90.443,69.247 91.560,69.520 C91.897,69.645 92.234,69.771 92.572,69.896 C93.432,69.440 94.293,68.985 95.154,68.529 C95.770,68.529 96.387,68.529 97.003,68.529 ZM70.238,49.566 C70.051,50.432 69.865,51.298 69.679,52.163 C67.927,52.527 66.622,53.222 65.282,53.940 C64.503,53.473 63.723,53.006 62.944,52.539 C62.107,53.371 61.269,54.202 60.431,55.034 C60.802,56.835 61.825,57.437 63.084,58.348 C63.107,58.336 63.130,58.325 63.153,58.314 C63.357,57.824 63.781,57.469 64.096,57.084 C66.035,54.706 70.434,52.560 74.914,53.906 C76.887,54.499 78.748,55.603 79.904,57.015 C80.230,57.448 80.555,57.881 80.881,58.314 C81.207,58.051 81.533,57.790 81.858,57.528 C82.137,57.391 82.417,57.254 82.696,57.117 C82.987,56.412 83.277,55.705 83.568,55.000 C82.719,54.180 81.870,53.359 81.021,52.539 C80.201,52.864 79.575,53.759 78.683,53.940 C77.580,53.036 75.929,52.546 74.320,52.163 C74.134,51.298 73.948,50.432 73.762,49.566 C72.587,49.566 71.412,49.566 70.238,49.566 ZM71.529,55.102 C70.747,55.394 69.865,55.283 69.156,55.546 C66.896,56.382 65.203,57.785 64.131,59.783 C64.262,60.338 64.561,60.865 64.689,61.491 C65.330,64.630 64.065,67.236 62.316,68.324 C62.316,68.449 62.316,68.575 62.316,68.700 C63.363,68.962 64.410,69.224 65.457,69.486 C66.562,69.224 67.667,68.962 68.772,68.700 C68.772,68.575 68.772,68.449 68.772,68.324 C67.114,67.213 66.364,65.671 66.364,62.892 C66.364,62.086 66.345,61.324 66.538,60.705 C67.052,59.061 68.142,57.835 69.679,57.186 C70.333,56.910 71.320,56.504 72.366,56.673 C75.683,57.211 77.635,59.143 77.636,62.926 C77.636,63.843 77.646,64.697 77.426,65.386 C76.919,66.974 76.114,67.296 75.228,68.359 C75.220,68.524 75.219,68.624 75.298,68.700 C76.379,68.962 77.461,69.224 78.543,69.486 C79.590,69.224 80.637,68.962 81.684,68.700 C81.684,68.586 81.684,68.473 81.684,68.359 C81.660,68.324 81.637,68.290 81.614,68.256 C79.363,67.280 78.474,62.495 79.834,59.783 C79.685,59.240 79.239,58.815 78.927,58.416 C77.379,56.440 75.097,55.097 71.529,55.102 ZM58.547,58.280 C58.097,58.469 57.615,58.469 57.221,58.690 C55.700,59.539 54.614,61.330 55.057,64.054 C55.138,64.549 55.227,65.015 55.406,65.420 C55.931,66.606 56.719,66.696 57.500,67.471 C57.509,67.892 57.597,69.747 57.430,69.930 C56.849,70.078 56.267,70.226 55.685,70.374 C55.697,70.397 55.709,70.420 55.720,70.443 C57.116,71.240 58.512,72.037 59.908,72.835 C59.918,73.356 59.957,74.060 59.803,74.474 C60.641,74.304 61.478,74.132 62.316,73.962 C62.280,72.308 62.734,71.530 63.433,70.647 C62.525,70.408 61.618,70.169 60.711,69.930 C60.711,69.088 60.711,68.244 60.711,67.402 C62.401,66.858 63.119,65.254 63.119,62.994 C63.119,62.350 63.133,61.750 62.979,61.252 C62.409,59.406 61.064,58.253 58.547,58.280 ZM71.459,58.280 C71.087,58.382 70.714,58.485 70.342,58.587 C69.434,58.971 68.626,59.801 68.248,60.705 C67.999,61.303 67.969,62.005 67.969,62.858 C67.969,65.202 68.643,66.815 70.377,67.402 C70.366,68.256 70.354,69.111 70.342,69.964 C69.598,70.147 68.853,70.329 68.109,70.511 C66.424,70.968 64.758,70.990 64.131,72.492 C64.019,72.760 63.855,73.221 63.956,73.586 C63.968,73.586 63.979,73.586 63.991,73.586 C67.633,72.734 70.309,74.043 73.099,74.850 C73.390,74.873 73.681,74.896 73.972,74.919 C74.576,75.078 75.181,75.238 75.786,75.397 C76.763,75.688 78.980,76.637 80.044,76.353 C80.055,76.331 80.067,76.308 80.078,76.285 C80.083,74.946 80.292,73.061 79.764,72.185 C78.791,70.569 75.570,70.581 73.622,69.930 C73.622,69.088 73.622,68.244 73.622,67.402 C75.527,66.759 76.711,63.874 75.856,61.149 C75.296,59.365 73.909,58.254 71.459,58.280 ZM84.371,58.280 C84.115,58.336 83.859,58.393 83.603,58.450 C82.586,58.800 81.645,59.597 81.230,60.534 C80.943,61.183 80.881,61.894 80.881,62.858 C80.881,65.197 81.542,66.839 83.289,67.402 C83.277,68.256 83.266,69.111 83.254,69.964 C82.358,70.192 81.463,70.420 80.567,70.647 C81.101,71.351 81.505,71.942 81.684,73.040 C81.695,73.848 81.707,74.656 81.719,75.465 C84.650,73.962 87.582,72.459 90.513,70.956 C89.175,70.614 87.837,70.271 86.499,69.930 C86.499,69.099 86.499,68.268 86.499,67.436 C88.118,66.612 88.942,65.471 88.942,63.029 C88.942,62.187 88.904,61.476 88.663,60.876 C88.013,59.257 86.732,58.256 84.371,58.280 ZM48.601,68.529 C48.601,73.073 48.601,77.618 48.601,82.162 C49.765,82.538 50.928,82.914 52.091,83.289 C53.057,79.475 54.022,75.658 54.988,71.844 C53.580,71.047 52.172,70.249 50.765,69.452 C50.102,69.064 49.641,68.539 48.601,68.529 ZM95.328,70.238 C90.327,72.823 85.324,75.408 80.323,77.994 C79.446,78.245 78.501,77.816 77.950,77.652 C76.391,77.242 74.832,76.832 73.274,76.422 C72.391,76.270 71.628,76.709 71.110,76.969 C69.714,77.641 68.318,78.312 66.922,78.984 C66.585,79.188 66.209,79.655 66.364,80.317 C66.532,81.032 67.396,81.378 68.109,80.966 C69.408,80.216 71.555,78.262 73.657,78.916 C74.909,79.306 75.628,80.409 76.554,81.137 C78.299,82.674 80.044,84.212 81.788,85.750 C86.325,83.517 90.862,81.284 95.398,79.053 C95.398,76.877 95.398,74.702 95.398,72.527 C95.398,72.105 95.502,70.433 95.328,70.238 ZM56.453,72.698 C55.790,75.306 55.127,77.914 54.464,80.522 C54.282,81.170 53.564,83.287 53.661,83.836 C54.196,83.996 54.732,84.155 55.267,84.314 C56.011,81.729 56.756,79.144 57.500,76.559 C57.778,75.664 58.236,74.737 58.268,73.689 C57.663,73.359 57.058,73.028 56.453,72.698 ZM70.377,89.849 C71.241,89.904 71.901,90.288 72.296,90.807 C72.401,90.977 72.506,91.148 72.610,91.319 C73.215,91.808 73.820,92.298 74.425,92.788 C74.938,93.133 75.796,93.020 75.996,92.480 C76.225,91.859 75.703,91.550 75.402,91.319 C74.460,90.533 73.518,89.747 72.576,88.961 C72.311,88.739 71.352,88.215 71.633,87.935 C71.924,87.583 72.215,87.230 72.506,86.877 C73.855,87.982 75.205,89.087 76.554,90.192 C76.923,90.474 77.802,90.950 78.264,90.362 C78.766,89.723 78.126,89.121 77.740,88.824 C76.461,87.788 75.181,86.752 73.902,85.715 C74.251,85.317 74.600,84.918 74.949,84.519 C76.426,85.726 77.903,86.934 79.380,88.141 C80.010,88.526 80.780,88.103 80.881,87.526 C80.995,86.874 79.561,85.885 79.171,85.578 C77.775,84.349 76.379,83.118 74.984,81.889 C74.348,81.388 73.870,80.561 72.925,80.385 C72.171,80.245 71.717,80.694 71.319,80.932 C70.233,81.583 68.171,83.266 66.434,82.572 C64.905,81.961 64.095,79.808 65.317,78.267 C66.332,76.988 68.854,76.612 70.203,75.602 C70.203,75.590 70.203,75.579 70.203,75.568 C69.178,75.395 68.276,75.028 67.097,74.850 C65.940,74.676 64.837,75.020 63.991,75.226 C62.432,75.556 60.873,75.886 59.315,76.217 C58.594,78.711 57.872,81.205 57.151,83.699 C57.689,83.883 59.327,85.168 59.699,85.032 C60.024,84.701 60.350,84.372 60.676,84.041 C61.017,83.707 61.333,83.299 61.758,83.050 C63.053,82.292 64.655,83.033 65.212,83.938 C65.423,84.280 65.441,84.688 65.561,85.134 C66.980,85.128 67.866,86.193 67.969,87.492 C69.322,87.498 70.356,88.540 70.377,89.849 ZM62.909,84.314 C62.282,84.622 59.755,86.547 61.129,87.356 C62.348,88.072 65.425,84.321 62.909,84.314 ZM65.212,86.706 C64.615,87.064 62.154,88.955 63.572,89.747 C64.719,90.387 67.979,86.616 65.212,86.706 ZM67.690,89.063 C67.099,89.396 64.581,91.283 65.980,92.104 C67.161,92.797 70.337,88.996 67.690,89.063 ZM70.168,91.421 C69.540,91.730 67.014,93.652 68.388,94.462 C69.609,95.181 72.681,91.422 70.168,91.421 ZM72.576,93.334 C72.309,93.868 71.671,94.181 71.494,94.701 C71.915,94.918 72.350,95.692 73.134,95.316 C74.281,94.765 73.095,93.685 72.576,93.334 Z"/>
</svg>