<svg 
 xmlns="http://www.w3.org/2000/svg"
 xmlns:xlink="http://www.w3.org/1999/xlink"
 width="46px" height="46px">
<defs>
<linearGradient id="PSgrad_0" x1="0%" x2="27.564%" y1="96.126%" y2="0%">
  <stop offset="0%" stop-color="rgb(34,159,255)" stop-opacity="1" />
  <stop offset="100%" stop-color="rgb(69,226,0)" stop-opacity="1" />
</linearGradient>

</defs>
<path fill-rule="evenodd"  fill="url(#PSgrad_0)"
 d="M39.844,6.202 C39.855,9.902 39.865,13.603 39.876,17.304 C40.395,16.785 40.915,16.267 41.434,15.749 C41.921,15.542 42.402,15.123 43.246,15.273 C44.562,15.507 45.829,16.893 45.154,18.541 C44.874,19.225 44.244,19.671 43.755,20.158 C42.886,21.035 42.017,21.913 41.148,22.790 C40.713,23.224 40.279,23.658 39.844,24.091 C39.844,25.454 39.844,26.819 39.844,28.182 C39.844,31.809 39.844,35.435 39.844,39.062 C39.844,42.048 40.037,43.956 38.254,45.214 C36.621,46.369 32.114,45.913 29.352,45.913 C23.099,45.913 16.845,45.913 10.593,45.913 C9.046,45.913 7.498,45.913 5.951,45.913 C4.576,45.913 3.165,45.975 2.231,45.564 C0.977,45.013 0.040,43.752 0.037,41.948 C0.036,41.208 -0.093,40.221 0.355,39.918 C0.690,39.692 1.506,39.791 2.040,39.791 C3.418,39.791 4.796,39.791 6.173,39.791 C6.173,30.202 6.173,20.611 6.173,11.023 C6.173,9.205 6.173,7.386 6.173,5.568 C6.173,4.705 6.070,3.651 6.269,2.935 C6.541,1.954 7.178,1.135 7.954,0.652 C9.504,-0.315 14.294,0.081 16.857,0.081 C23.067,0.081 29.278,0.081 35.488,0.081 C37.014,0.081 38.541,0.081 40.067,0.081 C41.442,0.081 42.852,0.018 43.787,0.429 C45.040,0.981 45.978,2.241 45.981,4.046 C45.982,4.785 46.111,5.772 45.663,6.075 C45.328,6.302 44.512,6.202 43.978,6.202 C42.600,6.202 41.222,6.202 39.844,6.202 ZM7.700,39.791 C16.167,39.791 24.637,39.791 33.104,39.791 C34.124,40.013 33.544,41.369 33.740,42.424 C33.962,43.623 35.146,44.773 36.696,44.295 C38.451,43.754 38.318,41.998 38.318,39.696 C38.318,36.451 38.318,33.204 38.318,29.959 C38.308,28.521 38.297,27.083 38.286,25.645 C36.146,27.781 34.004,29.917 31.864,32.052 C31.210,32.250 28.527,33.132 27.985,32.845 C27.830,32.763 27.648,32.524 27.603,32.337 C27.541,32.081 28.344,28.873 28.462,28.689 C31.747,25.413 35.033,22.135 38.318,18.857 C38.329,13.678 38.339,8.495 38.350,3.315 C38.490,2.626 38.886,2.174 39.049,1.603 C31.652,1.603 24.253,1.603 16.857,1.603 C14.587,1.603 9.670,1.216 8.463,2.174 C7.669,2.805 7.700,3.963 7.700,5.409 C7.700,7.524 7.700,9.638 7.700,11.752 C7.700,21.098 7.700,30.446 7.700,39.791 ZM42.070,1.603 C41.784,1.667 41.498,1.730 41.211,1.793 C40.397,2.133 39.497,3.304 39.876,4.680 C41.402,4.670 42.928,4.659 44.455,4.648 C44.490,2.763 43.811,1.688 42.070,1.603 ZM14.567,4.680 C20.194,4.680 25.823,4.680 31.450,4.680 C31.440,5.187 31.429,5.696 31.419,6.202 C25.802,6.191 20.184,6.181 14.567,6.170 C14.567,5.673 14.567,5.176 14.567,4.680 ZM17.079,7.947 C17.450,8.306 17.821,8.666 18.192,9.025 C17.503,9.712 16.814,10.399 16.125,11.087 C16.125,11.097 16.125,11.109 16.125,11.118 C16.137,12.052 16.385,14.090 15.807,14.481 C15.598,14.622 11.949,14.725 11.420,14.607 C11.162,14.550 10.915,14.379 10.815,14.163 C10.630,13.759 10.752,12.911 10.752,12.387 C10.752,11.493 10.518,9.752 11.070,9.374 C11.531,9.058 13.807,9.247 14.599,9.247 C14.926,9.247 15.541,9.169 15.712,9.342 C16.168,8.877 16.623,8.411 17.079,7.947 ZM19.177,9.247 C24.540,9.247 29.903,9.247 35.266,9.247 C35.266,9.755 35.266,10.262 35.266,10.769 C29.903,10.769 24.540,10.769 19.177,10.769 C19.177,10.262 19.177,9.755 19.177,9.247 ZM12.278,13.054 C13.052,13.054 13.825,13.054 14.599,13.054 C14.599,12.927 14.599,12.799 14.599,12.672 C14.504,12.726 14.408,12.778 14.313,12.831 C13.974,12.482 13.635,12.134 13.295,11.784 C13.295,11.764 13.295,11.742 13.295,11.721 C13.613,11.404 13.931,11.087 14.249,10.769 C13.592,10.780 12.935,10.791 12.278,10.801 C12.278,11.552 12.278,12.302 12.278,13.054 ZM19.177,12.292 C23.522,12.302 27.869,12.313 32.213,12.324 C32.203,12.831 32.192,13.339 32.182,13.847 C27.847,13.847 23.512,13.847 19.177,13.847 C19.177,13.328 19.177,12.810 19.177,12.292 ZM17.079,15.591 C17.450,15.939 17.821,16.289 18.192,16.637 C17.503,17.324 16.814,18.012 16.125,18.698 C16.125,18.709 16.125,18.720 16.125,18.731 C16.136,19.578 16.301,21.770 15.839,22.093 C15.680,22.203 11.734,22.353 11.292,22.220 C11.118,22.167 10.888,21.967 10.815,21.807 C10.631,21.400 10.752,20.557 10.752,20.031 C10.752,19.090 10.518,17.376 11.102,16.986 C11.526,16.702 13.901,16.891 14.631,16.891 C14.953,16.891 15.545,16.814 15.712,16.986 C16.168,16.521 16.623,16.056 17.079,15.591 ZM42.801,16.795 C42.340,17.035 42.013,17.258 41.720,17.652 C42.112,18.055 42.504,18.456 42.897,18.857 C43.130,18.636 43.363,18.414 43.596,18.191 C43.898,17.494 43.672,16.794 42.801,16.795 ZM19.177,16.891 C24.540,16.891 29.903,16.891 35.266,16.891 C35.266,17.398 35.266,17.906 35.266,18.414 C29.903,18.414 24.540,18.414 19.177,18.414 C19.177,17.906 19.177,17.398 19.177,16.891 ZM12.278,20.697 C13.041,20.697 13.804,20.697 14.567,20.697 C14.567,20.560 14.567,20.422 14.567,20.285 C14.216,20.545 13.576,19.786 13.295,19.397 C13.613,19.069 13.931,18.741 14.249,18.414 C13.592,18.424 12.935,18.435 12.278,18.446 C12.278,19.196 12.278,19.946 12.278,20.697 ZM40.607,18.731 C38.075,21.268 35.541,23.806 33.008,26.343 C31.949,27.390 30.889,28.436 29.829,29.483 C29.691,30.022 29.553,30.561 29.415,31.100 C31.552,30.769 32.387,29.342 33.612,28.119 C36.346,25.392 39.081,22.664 41.815,19.936 C41.413,19.534 41.010,19.132 40.607,18.731 ZM19.177,19.936 C23.522,19.946 27.869,19.958 32.213,19.967 C32.213,20.464 32.213,20.962 32.213,21.459 C27.869,21.459 23.522,21.459 19.177,21.459 C19.177,20.951 19.177,20.444 19.177,19.936 ZM17.079,23.235 C17.450,23.584 17.821,23.933 18.192,24.281 C17.503,24.969 16.814,25.656 16.125,26.343 C16.125,26.353 16.125,26.364 16.125,26.374 C16.142,27.347 16.385,29.379 15.775,29.769 C15.617,29.869 11.750,29.973 11.324,29.863 C11.141,29.817 10.892,29.607 10.815,29.451 C10.613,29.039 10.752,28.117 10.752,27.580 C10.752,26.771 10.544,25.230 10.943,24.757 C11.251,24.390 15.015,24.467 15.744,24.598 C16.189,24.144 16.634,23.688 17.079,23.235 ZM19.177,24.535 C22.494,24.535 25.812,24.535 29.129,24.535 C29.129,25.042 29.129,25.549 29.129,26.057 C25.812,26.057 22.494,26.057 19.177,26.057 C19.177,25.549 19.177,25.042 19.177,24.535 ZM12.278,26.057 C12.289,26.819 12.299,27.580 12.310,28.341 C13.062,28.341 13.815,28.341 14.567,28.341 C14.578,28.203 14.588,28.066 14.599,27.929 C14.173,28.130 13.621,27.489 13.295,27.041 C13.613,26.713 13.931,26.386 14.249,26.057 C13.592,26.057 12.935,26.057 12.278,26.057 ZM19.177,27.580 C21.477,27.580 23.777,27.580 26.077,27.580 C26.077,28.087 26.077,28.595 26.077,29.103 C23.777,29.103 21.477,29.103 19.177,29.103 C19.177,28.595 19.177,28.087 19.177,27.580 ZM17.079,30.878 C17.450,31.227 17.821,31.576 18.192,31.925 C17.503,32.613 16.814,33.299 16.125,33.988 C16.125,33.998 16.125,34.008 16.125,34.018 C16.141,34.963 16.380,36.976 15.807,37.380 C15.628,37.507 11.847,37.631 11.356,37.507 C11.197,37.402 11.038,37.296 10.879,37.190 C10.618,36.806 10.752,35.792 10.752,35.192 C10.752,34.415 10.545,32.919 10.911,32.433 C11.262,31.966 14.957,32.081 15.744,32.243 C16.189,31.788 16.634,31.333 17.079,30.878 ZM19.177,32.147 C21.477,32.147 23.777,32.147 26.077,32.147 C26.077,32.665 26.077,33.183 26.077,33.701 C23.777,33.701 21.477,33.701 19.177,33.701 C19.177,33.183 19.177,32.665 19.177,32.147 ZM12.278,33.701 C12.289,34.463 12.299,35.224 12.310,35.986 C13.073,35.974 13.836,35.964 14.599,35.953 C14.599,35.943 14.599,35.932 14.599,35.921 C14.599,35.806 14.599,35.690 14.599,35.573 C14.173,35.773 13.621,35.134 13.295,34.684 C13.317,34.664 13.338,34.642 13.359,34.621 C13.645,34.325 13.931,34.029 14.217,33.733 C14.217,33.722 14.217,33.712 14.217,33.701 C13.571,33.701 12.924,33.701 12.278,33.701 ZM19.177,35.224 C23.522,35.224 27.869,35.224 32.213,35.224 C32.203,35.732 32.192,36.239 32.182,36.746 C27.847,36.746 23.512,36.746 19.177,36.746 C19.177,36.239 19.177,35.732 19.177,35.224 ZM32.182,41.314 C21.976,41.324 11.768,41.335 1.563,41.345 C1.529,44.056 2.805,44.391 5.506,44.391 C6.788,44.391 8.071,44.391 9.353,44.391 C17.216,44.391 25.082,44.391 32.945,44.391 C32.945,44.380 32.945,44.370 32.945,44.359 C32.924,44.338 32.902,44.317 32.881,44.295 C32.491,43.309 32.184,42.838 32.182,41.314 Z"/>
</svg>