<svg 
 xmlns="http://www.w3.org/2000/svg"
 xmlns:xlink="http://www.w3.org/1999/xlink"
 width="145px" height="146px">
<defs>
<linearGradient id="PSgrad_0" x1="0%" x2="27.564%" y1="96.126%" y2="0%">
  <stop offset="0%" stop-color="rgb(34,159,255)" stop-opacity="1" />
  <stop offset="100%" stop-color="rgb(69,226,0)" stop-opacity="1" />
</linearGradient>
<filter filterUnits="userSpaceOnUse" id="Filter_0" x="0px" y="0px" width="144px" height="145px"  >
    <feOffset in="SourceAlpha" dx="0" dy="0" />
    <feGaussianBlur result="blurOut" stdDeviation="4.472" />
    <feFlood flood-color="rgb(0, 62, 139)" result="floodOut" />
    <feComposite operator="atop" in="floodOut" in2="blurOut" />
    <feComponentTransfer><feFuncA type="linear" slope="0.1"/></feComponentTransfer>
    <feMerge>
    <feMergeNode/>
    <feMergeNode in="SourceGraphic"/>
  </feMerge>
</filter>

</defs>
<path fill-rule="evenodd"  stroke="rgb(223, 236, 240)" stroke-width="2px" stroke-linecap="butt" stroke-linejoin="miter" fill="none"
 d="M72.484,4.156 C110.877,4.156 142.000,35.209 142.000,73.516 C142.000,111.822 110.877,142.875 72.484,142.875 C34.092,142.875 2.969,111.822 2.969,73.516 C2.969,35.209 34.092,4.156 72.484,4.156 Z"/>
<g filter="url(#Filter_0)">
<path fill-rule="evenodd"  fill="rgb(255, 255, 255)"
 d="M71.500,19.968 C100.495,19.968 124.000,43.459 124.000,72.437 C124.000,101.415 100.495,124.906 71.500,124.906 C42.505,124.906 19.000,101.415 19.000,72.437 C19.000,43.459 42.505,19.968 71.500,19.968 Z"/>
</g>
<path fill-rule="evenodd"  fill="url(#PSgrad_0)"
 d="M90.287,48.996 C91.671,49.000 91.319,50.799 91.955,51.620 C92.192,51.926 92.633,52.248 93.010,52.404 C93.703,52.690 94.659,52.459 94.916,53.188 C95.375,54.487 93.725,54.292 93.010,54.584 C92.491,54.797 91.995,55.249 91.716,55.709 C91.298,56.399 91.556,57.803 90.627,57.992 C89.460,58.229 89.688,56.948 89.436,56.220 C89.297,55.822 89.029,55.437 88.755,55.163 C88.493,54.903 88.111,54.649 87.734,54.516 C87.069,54.282 86.301,54.494 86.031,53.869 C85.458,52.539 87.165,52.706 87.904,52.404 C88.390,52.205 88.900,51.774 89.163,51.347 C89.722,50.439 89.272,49.557 90.287,48.996 ZM90.423,52.608 C90.284,52.922 89.884,53.319 89.572,53.459 C89.619,53.525 89.575,53.481 89.640,53.528 C89.882,53.826 90.252,54.011 90.423,54.380 C90.488,54.332 90.443,54.376 90.491,54.312 C90.774,54.039 91.058,53.766 91.342,53.494 C91.342,53.483 91.342,53.471 91.342,53.459 C90.940,53.271 90.775,52.835 90.423,52.608 ZM57.097,56.731 C67.070,56.743 77.046,56.755 87.019,56.765 C87.626,56.986 88.705,59.075 89.095,59.696 C90.457,61.774 91.819,63.854 93.180,65.932 C93.581,66.570 94.812,68.007 94.950,68.692 C95.105,69.456 94.235,69.946 93.929,70.328 C92.817,71.600 91.705,72.872 90.593,74.145 C86.123,79.255 81.651,84.368 77.181,89.479 C75.899,90.944 74.616,92.410 73.334,93.875 C73.035,94.249 72.584,95.165 71.802,95.000 C71.158,94.863 69.881,93.082 69.453,92.546 C67.445,90.274 65.436,88.003 63.428,85.731 C62.973,85.162 61.048,83.553 61.794,82.630 C62.604,81.627 63.900,83.424 64.245,83.857 C66.163,86.049 68.081,88.241 69.998,90.434 C67.979,83.539 65.958,76.643 63.939,69.749 C59.934,69.760 55.927,69.771 51.922,69.782 C51.956,69.817 51.990,69.851 52.024,69.885 C52.402,70.651 55.488,72.913 54.169,73.872 C53.565,74.311 52.937,73.770 52.637,73.395 C51.764,72.373 50.890,71.350 50.016,70.328 C49.696,69.928 49.110,69.577 48.995,68.999 C48.866,68.353 50.439,66.424 50.765,65.932 C52.194,63.763 53.625,61.593 55.054,59.423 C55.651,58.524 56.137,57.265 57.097,56.731 ZM58.969,58.538 C60.852,61.411 62.736,64.286 64.620,67.159 C64.654,67.136 64.688,67.113 64.722,67.091 C66.582,64.240 68.444,61.388 70.305,58.538 C66.526,58.538 62.747,58.538 58.969,58.538 ZM73.675,58.538 C75.558,61.422 77.442,64.308 79.325,67.193 C79.348,67.181 79.371,67.171 79.393,67.159 C81.265,64.286 83.138,61.411 85.010,58.538 C81.232,58.538 77.453,58.538 73.675,58.538 ZM57.267,59.287 C55.372,62.172 53.477,65.057 51.582,67.942 C55.371,67.942 59.162,67.942 62.952,67.942 C62.952,67.931 62.952,67.920 62.952,67.908 C62.929,67.886 62.906,67.863 62.884,67.840 C61.011,64.990 59.139,62.137 57.267,59.287 ZM71.938,59.287 C70.066,62.161 68.194,65.035 66.322,67.908 C66.322,67.920 66.322,67.931 66.322,67.942 C70.100,67.942 73.879,67.942 77.657,67.942 C77.635,67.920 77.612,67.897 77.589,67.874 C76.228,65.796 74.866,63.717 73.504,61.638 C72.982,60.855 72.460,60.070 71.938,59.287 ZM86.678,59.287 C84.795,62.161 82.911,65.035 81.027,67.908 C81.027,67.920 81.027,67.931 81.027,67.942 C84.806,67.942 88.585,67.942 92.363,67.942 C92.352,67.908 92.340,67.874 92.329,67.840 C90.446,64.990 88.562,62.137 86.678,59.287 ZM65.845,69.749 C67.887,76.745 69.930,83.743 71.972,90.740 C71.984,90.740 71.995,90.740 72.007,90.740 C74.049,83.755 76.092,76.768 78.134,69.782 C78.123,69.771 78.111,69.760 78.100,69.749 C74.015,69.749 69.930,69.749 65.845,69.749 ZM80.006,69.749 C77.987,76.643 75.967,83.539 73.947,90.434 C79.971,83.550 85.998,76.665 92.023,69.782 C92.023,69.771 92.023,69.760 92.023,69.749 C88.018,69.749 84.011,69.749 80.006,69.749 ZM57.948,73.258 C59.121,73.376 58.745,74.286 59.037,75.269 C59.226,75.905 59.554,76.472 59.922,76.939 C60.412,77.559 61.238,78.030 62.101,78.268 C62.821,78.468 63.661,78.242 63.939,78.881 C64.122,79.302 63.924,79.817 63.667,80.006 C63.274,80.295 62.361,80.193 61.862,80.346 C60.812,80.668 59.959,81.421 59.445,82.289 C58.980,83.077 59.123,85.096 58.152,85.287 C57.064,85.502 57.232,84.400 57.063,83.618 C56.873,82.746 56.428,81.821 55.837,81.335 C55.259,80.858 54.615,80.445 53.761,80.244 C52.954,80.055 52.220,80.281 52.024,79.495 C51.904,79.008 52.222,78.612 52.467,78.472 C53.000,78.393 53.534,78.313 54.067,78.234 C55.130,77.912 55.983,77.216 56.518,76.359 C56.764,75.965 56.955,75.438 57.063,74.928 C57.158,74.475 57.042,73.941 57.267,73.633 C57.429,73.411 57.682,73.385 57.948,73.258 ZM57.982,77.348 C57.757,77.893 57.196,78.466 56.756,78.813 C56.545,78.980 56.242,79.081 56.109,79.324 C56.801,79.602 57.702,80.509 57.982,81.198 C58.004,81.198 58.027,81.198 58.050,81.198 C58.331,80.408 59.247,79.710 59.922,79.290 C59.911,79.267 59.899,79.245 59.888,79.222 C58.992,78.847 58.654,77.935 57.982,77.348 Z"/>
</svg>